<svg width="424" height="122" viewBox="0 0 424 122" xmlns="http://www.w3.org/2000/svg">
  <path d="M186.74 37.3C186.74 45.71 181.47 50.55 172.29 50.55H165.12V60.87H157V24.77H172.31C181.47 24.77 186.74 29.31 186.74 37.3ZM179 37.56C179 33.56 176.42 31.56 171.88 31.56H165.12V43.79H171.88C176.42 43.75 179 41.68 179 37.56Z" />
  <path d="M199.57 24.77V42.77H215.92V24.77H224.07V60.87H215.92V50H199.57V60.83H191.42V24.73L199.57 24.77Z" />
  <path d="M255.41 53.65H238.87L236 60.87H227.59L243.27 24.77H251.68L267.1 60.87H258.38L255.41 53.65ZM252.51 46.43L247.19 33.28L241.82 46.43H252.51Z" />
  <path d="M324.2 53.65H307.66L304.74 60.87H296.33L312 24.77H320.4L335.83 60.87H327.11L324.2 53.65ZM321.3 46.43L316 33.28L310.63 46.43H321.3Z" />
  <path d="M279 24.77V53.77H294.47V60.89H270.85V24.79L279 24.77Z" />
  <path d="M164.4 84.94L181.93 108.14V84.94H189.66V121H182.24L164.76 97.85V121H157V84.94H164.4Z" />
  <path d="M222.38 84.94V91.7H203V99.53H220.38V106.29H203V114.29H222.9V121H194.9V84.94H222.38Z" />
  <path d="M255.73 84.94V91.85H244.73V121H236.58V91.85H225.58V84.94H255.73Z" />
  <path d="M266.83 84.94L274.41 112.16L281.94 84.94H289.94L297.57 112.16L305.1 84.94H313.45L301.45 121.03H293.04L285.8 95.3L278.38 121H270L258.09 84.91L266.83 84.94Z" />
  <path d="M352.6 102.93C352.6 113.28 344.3 121.22 333.34 121.22C322.38 121.22 314.09 113.33 314.09 102.93C314.09 92.53 322.39 84.76 333.34 84.76C344.29 84.76 352.6 92.54 352.6 102.93ZM322.39 102.93C322.371 105.884 323.526 108.724 325.599 110.828C327.673 112.931 330.496 114.126 333.45 114.15C335.662 114.172 337.83 113.536 339.68 112.325C341.53 111.113 342.979 109.379 343.843 107.343C344.707 105.307 344.946 103.06 344.532 100.887C344.118 98.7148 343.067 96.7142 341.515 95.1391C339.962 93.5639 337.977 92.4852 335.81 92.0396C333.644 91.594 331.394 91.8015 329.346 92.636C327.297 93.4704 325.543 94.8941 324.305 96.7267C323.066 98.5593 322.4 100.718 322.39 102.93V102.93Z" />
  <path d="M377.72 121L372 110.72H363.7V121H355.56V84.94H371.23C380.67 84.94 386.03 89.48 386.03 97.47C386.03 103.04 383.66 107.06 379.27 109.12L387 121H377.72ZM363.72 103.88H371.25C375.74 103.88 378.31 101.82 378.31 97.7C378.31 93.58 375.74 91.7 371.25 91.7H363.72V103.88Z" />
  <path d="M413.68 121L403.31 106.31L398.11 112.08V121H390V84.94H398.15V101.34L413.15 84.94H422.58L409 100L423.48 121H413.68Z" />
  <path d="M96.8 60.96H24.6V85.03H96.8V60.96Z" />
  <path d="M120.87 24.85H96.8V60.95H120.87V24.85Z" />
  <path d="M24.6 85.03H0.529999V91.05V97.06V121.13H24.6V97.06V85.03Z" />
  <path d="M96.8 0.779999H24.6H21.14H0.529999V48.92V56.61V60.96H24.6V56.61V48.92V24.85H96.8V0.779999Z" />
  <path d="M96.8 60.96H24.6V85.03H96.8V60.96Z" />
</svg>
  