<svg width="508" height="63" viewBox="0 0 508 63" xmlns="http://www.w3.org/2000/svg">
  <path d="M26.1 12.4C21.5 12.4 18.4 14 18.4 17.3C18.4 28.4 50.6 22.2 50.5 44C50.5 55.8 40.2 62.2 26.9 62.2C17 62.2 7.00001 58.4 0.200012 52.6L5.60001 41.5C11.8 47 20.6 50.6 27 50.6C32.6 50.6 36 48.5 36 44.8C36 33.4 3.79999 40 3.79999 18.7C3.79999 7.70003 13.2 0.800018 27.2 0.800018C35.7 0.800018 44.1 3.40001 50.2 7.40001L44.9 18.7C38.5 14.8 30.9 12.4 26.1 12.4Z" />
  <path d="M86.9 50.8C95.1 50.8 100.6 45.5 100.6 36.6V0.900024H114.5V36.6C114.5 52.8 103.9 62.9 86.9 62.9C69.9 62.9 59 52.8 59 36.6V0.900024H72.9V36.6C72.9 45.4 78.6 50.8 86.9 50.8Z" />
  <path d="M173.2 16.2C173.2 22.8 169.2 28 162.6 29.7C170.6 31.2 175.4 37.2 175.4 45.2C175.4 55.7 166.4 62.2 152.2 62.2H123V0.800018H151.3C164.7 0.800018 173.2 6.70001 173.2 16.2ZM158.9 18.7C158.9 14.5 155.7 12 150.5 12.1H136.8V25.5H150.5C155.8 25.6 158.9 23 158.9 18.7ZM161 43.5C161 39 157 36.3 150.5 36.4H136.8V51H150.5C157 50.9 161 48.2 161 43.5Z" />
  <path d="M232.4 16.2C232.4 22.8 228.4 28 221.8 29.7C229.8 31.2 234.6 37.2 234.6 45.2C234.6 55.7 225.6 62.2 211.4 62.2H182.2V0.800018H210.5C224 0.800018 232.4 6.70001 232.4 16.2ZM218.2 18.7C218.2 14.5 215 12 209.8 12.1H196.1V25.5H209.8C215 25.6 218.2 23 218.2 18.7ZM220.3 43.5C220.3 39 216.3 36.3 209.8 36.4H196.1V51H209.8C216.3 50.9 220.3 48.2 220.3 43.5Z" />
  <path d="M280.9 62.3L271.2 44.7H269.9H257V62.3H243.1V0.900024H269.8C285.9 0.900024 295 8.60004 295 22.2C295 31.7 291 38.5 283.5 42L296.6 62.3H280.9ZM257 33.1H269.8C277.4 33.1 281.8 29.6 281.8 22.6C281.8 15.8 277.4 12.3 269.8 12.3H257V33.1Z" />
  <path d="M317.8 0.800018V62.3H304V0.800018H317.8Z" />
  <path d="M387.8 31.5C387.8 49.6 374.4 62.2 355 62.2H329.5V0.700012H355.6C374.6 0.800012 387.8 13.4 387.8 31.5ZM373.7 31.6C373.7 20.3 365.8 12.5 355.3 12.5H343.4V50.6H355.9C366.2 50.6 373.7 42.9 373.7 31.6Z" />
  <path d="M439.8 31.2H451.6V54.4C445.2 59.1 435.5 62.3 427.1 62.3C408.8 62.3 394.9 49 394.9 31.5C394.9 14.1 409.1 0.900024 427.9 0.900024C436.9 0.900024 446 4.40003 452.2 9.70003L444.5 19.5C440 15.4 433.8 12.8 427.9 12.8C417.2 12.8 408.9 21 408.9 31.6C408.9 42.3 417.3 50.5 428 50.5C431.6 50.5 435.9 49.2 439.8 47.2V31.2Z" />
  <path d="M506.1 0.800018V12.3H473.2V25.6H502.8V37.1H473.2V50.7H507.1V62.2H459.3V0.800018H506.1Z" />
</svg>