<svg width="346" height="112" viewBox="0 0 346 112" fill="none" xmlns="http://www.w3.org/2000/svg">
  <path
    d="M148.996 78.3802C135.806 78.3802 126.552 71.5304 125.969 59.7983H134.276C134.859 66.7938 139.013 71.5304 148.777 71.5304C157.157 71.5304 159.708 67.8869 159.708 63.1503C159.708 56.5192 154.607 55.5719 145.134 53.1672C136.972 50.9811 128.009 48.3577 128.009 38.4474C128.009 29.4115 135.005 24.2378 146.227 24.2378C158.105 24.2378 165.829 30.286 166.63 40.7793H158.323C157.449 34.5124 153.878 31.0875 146.3 31.0875C139.741 31.0875 136.389 33.4923 136.389 38.0102C136.389 43.8398 141.855 45.0786 148.559 46.7546C158.615 49.305 168.088 51.7098 168.088 62.7131C168.088 71.6761 162.04 78.3802 148.996 78.3802ZM178.296 90.4037C176.693 90.4037 175.6 90.258 173.706 89.8936V84.064C174.944 84.2098 175.6 84.2827 176.766 84.2827C179.608 84.2827 182.96 82.8253 184.417 76.9957L169.406 40.1963H177.203L188.061 68.6156H188.207L198.408 40.1963H205.914L191.194 78.2344C187.624 87.4161 184.053 90.4037 178.296 90.4037ZM235.372 44.5685V40.1963H242.514V74.4452C242.514 85.6672 235.737 90.6952 225.098 90.6952C214.459 90.6952 209.139 85.5943 208.41 78.8903H215.843C216.572 82.2423 219.049 84.8656 225.098 84.8656C231.875 84.8656 235.372 81.8779 235.372 74.8824V69.8544H235.227C233.186 72.8421 229.761 75.4654 223.786 75.4654C214.532 75.4654 207.39 69.1986 207.39 57.3207C207.39 45.3701 214.532 39.1032 223.786 39.1032C229.761 39.1032 233.186 41.9452 235.227 44.5685H235.372ZM225.098 69.5629C231.51 69.5629 235.3 65.4093 235.3 57.3207C235.3 49.1593 231.51 45.0786 225.098 45.0786C218.102 45.0786 214.823 50.3252 214.823 57.3207C214.823 64.3163 218.102 69.5629 225.098 69.5629ZM290.927 39.1032C298.433 39.1032 302.222 43.6212 302.222 51.564V77.36H295.081V53.5315C295.081 48.5763 294.061 45.2243 288.595 45.2243C283.276 45.2243 279.924 48.9407 279.924 54.5517V77.36H272.783V53.5315C272.783 48.5763 271.762 45.2243 266.297 45.2243C260.978 45.2243 257.626 48.9407 257.626 54.5517V77.36H250.484V40.1963H257.626V44.86H257.771C259.739 42.018 263.164 39.1032 268.775 39.1032C273.949 39.1032 277.155 41.4351 278.612 45.5887H278.758C281.454 42.018 285.243 39.1032 290.927 39.1032ZM320.322 78.3802C312.889 78.3802 308.152 74.0809 308.152 67.7412C308.152 59.434 314.419 56.9564 323.674 55.2075C329.503 54.1145 333.074 53.3858 333.074 49.7423C333.074 47.0461 331.471 44.7871 326.006 44.7871C319.52 44.7871 317.553 46.8275 317.188 51.7826H309.901C310.266 44.6414 314.929 39.0304 326.297 39.0304C333.948 39.0304 340.069 42.2367 340.069 51.8555V68.9071C340.069 71.6033 340.434 72.9878 341.818 72.9878C342.037 72.9878 342.256 72.9878 342.693 72.9149V77.2871C341.454 77.5786 340.215 77.7244 339.049 77.7244C335.479 77.7244 333.584 76.3398 333.147 72.1134H333.001C330.596 75.9755 326.37 78.3802 320.322 78.3802ZM321.925 72.6235C328.337 72.6235 333.074 69.3443 333.074 62.8589V57.5394C331.908 58.6324 328.702 59.434 324.913 60.2355C318.354 61.5472 315.585 63.369 315.585 67.2311C315.585 70.7288 317.48 72.6235 321.925 72.6235Z"
    fill="currentColor" />
  <path
    d="M61.34 0.270004H51.16V50.91H61.34V33.91C65.8298 40.6426 71.6075 46.4202 78.34 50.91H61.34V61.09H51.34V78.09C46.8473 71.3598 41.0702 65.5827 34.34 61.09H51.16V50.91H0.640015V61.09C14.0674 61.1032 26.9413 66.4424 36.4368 75.9361C45.9324 85.4298 51.2741 98.3026 51.29 111.73H61.47V61.09H112V50.91C98.5709 50.8994 85.6945 45.5614 76.1967 36.0674C66.699 26.5734 61.3559 13.6992 61.34 0.270004Z"
    fill="#currentColor" />
</svg>