<svg
  width="6"
  height="12"
  viewBox="0 0 6 12"
  xmlns="http://www.w3.org/2000/svg"
>
  <path
    fill="currentColor"
    d="M2.4532 10.8267C1.91133 10.8178 1.42857 10.7733 1.00493 10.6933C0.591133 10.6222 0.256158 10.5244 0 10.4L0.399015 9.42667C0.596059 9.53333 0.862069 9.63111 1.19704 9.72C1.54187 9.8 1.96059 9.84889 2.4532 9.86667V6.26667C2.15764 6.13333 1.86207 5.99111 1.5665 5.84C1.28079 5.68889 1.02463 5.51111 0.79803 5.30667C0.571429 5.09333 0.389163 4.84444 0.251232 4.56C0.113301 4.27556 0.044335 3.93778 0.044335 3.54667C0.044335 2.90667 0.241379 2.38222 0.635468 1.97333C1.03941 1.56444 1.64532 1.31111 2.4532 1.21333V0H3.45813V1.17333C3.96059 1.19111 4.36946 1.23556 4.68473 1.30667C5.00985 1.36889 5.30049 1.45333 5.55665 1.56L5.20197 2.49333C5.00493 2.40444 4.76847 2.32889 4.49261 2.26667C4.21675 2.19556 3.87192 2.15111 3.45813 2.13333V5.42667C3.76355 5.56889 4.06897 5.72444 4.37438 5.89333C4.6798 6.05333 4.95074 6.24 5.18719 6.45333C5.4335 6.66667 5.63054 6.91556 5.77833 7.2C5.92611 7.48444 6 7.81778 6 8.2C6 8.89333 5.78325 9.46667 5.34975 9.92C4.92611 10.3644 4.29557 10.6489 3.45813 10.7733V12H2.4532V10.8267ZM4.7734 8.29333C4.7734 8.08 4.72906 7.88889 4.64039 7.72C4.56158 7.55111 4.4532 7.4 4.31527 7.26667C4.17734 7.13333 4.01478 7.01333 3.82759 6.90667C3.64039 6.8 3.43842 6.69778 3.22168 6.6V9.84C3.67488 9.76889 4.04434 9.60889 4.33005 9.36C4.62562 9.11111 4.7734 8.75556 4.7734 8.29333ZM1.27094 3.48C1.27094 3.86222 1.40394 4.17333 1.66995 4.41333C1.94581 4.65333 2.28571 4.87111 2.68966 5.06667V2.14667C2.16749 2.2 1.79803 2.35556 1.58128 2.61333C1.37438 2.87111 1.27094 3.16 1.27094 3.48Z"
  />
</svg>
