<svg width="36" height="36" xmlns="http://www.w3.org/2000/svg" version="1.1" xml:space="preserve">
 <g>
  <title>Layer 1</title>
  <g id="svg_3">
   <rect x="5033.804" y="-1702.584" width="72.559" height="324.65" id="svg_4"/>
   <rect x="5105.818" y="-1590.182" width="72.639" height="73.113" id="svg_5"/>
   <rect x="5177.487" y="-1516.905" width="72.639" height="73.113" id="svg_6"/>
   <rect x="5229.645" y="-1452.652" width="72.639" height="73.113" id="svg_7"/>
   <rect x="5229.645" y="-1703.218" width="72.639" height="73.113" id="svg_8"/>
   <rect x="5176.665" y="-1663.515" width="72.639" height="73.113" id="svg_9"/>
  </g>
  <rect x="5044.842" y="-1287.814" width="46.223" height="206.814" id="svg_10"/>
  <rect x="5090.718" y="-1216.209" width="46.274" height="46.576" id="svg_11"/>
  <rect x="5136.375" y="-1169.53" width="46.274" height="46.576" id="svg_12"/>
  <rect x="5169.601" y="-1128.598" width="46.274" height="46.576" fill="#2803FF" id="svg_13"/>
  <rect x="5169.601" y="-1288.218" width="46.274" height="46.576" id="svg_14"/>
  <rect x="5135.851" y="-1262.926" width="46.274" height="46.576" id="svg_15"/>
  <g id="svg_16">
   <rect x="5044.842" y="-992.717" width="46.223" height="206.814" id="svg_17"/>
   <rect x="5090.718" y="-921.112" width="46.274" height="46.576" id="svg_18"/>
   <rect x="5136.375" y="-874.432" width="46.274" height="46.576" id="svg_19"/>
   <rect x="5169.601" y="-833.5" width="46.274" height="46.576" fill="#0AE21E" id="svg_20"/>
   <rect x="5169.601" y="-993.12" width="46.274" height="46.576" id="svg_21"/>
   <rect x="5135.851" y="-967.828" width="46.274" height="46.576" id="svg_22"/>
  </g>
  <g id="svg_96" stroke="null">
   <g id="svg_97" stroke="null">
    <rect x="6.01833" y="6.07288" width="6.47638" height="23.85424" fill="#03FFFF" id="svg_98" stroke="null"/>
    <rect x="12.4456" y="12.6248" width="6.48339" height="6.2758" fill="#03FFFF" id="svg_99" stroke="null"/>
    <rect x="18.84282" y="18.91458" width="6.48339" height="6.2758" fill="#03FFFF" id="svg_100" stroke="null"/>
    <rect x="23.49828" y="23.54531" width="6.48339" height="6.2758" fill="#03FFFF" id="svg_101" stroke="null"/>
    <rect x="18.76966" y="6.3302" width="10.95497" height="6.2758" fill="#03FFFF" id="svg_102" stroke="null"/>
   </g>
  </g>
 </g>
</svg>