<svg width="146" height="27" viewBox="0 0 146 27" fill="none" xmlns="http://www.w3.org/2000/svg">
<path d="M16.6678 8.34058H13.334V13.351H16.6678V8.34058Z" fill="#111111"/>
<path d="M0 17.526V18.3614V21.701H3.33382V18.3614V16.6917H0V17.526Z" fill="#111111"/>
<path d="M3.33382 12.7471V11.6802V8.34064H13.3342V5H3.33382H2.85429H0V11.6802V12.7471V13.3511H3.33382V16.6906H13.3342V13.3511H3.33382V12.7471Z" fill="#111111"/>
<path d="M48.3593 5H45.0287H45.0254L38.3589 21.701H41.6927L43.0256 18.3604H50.3624L51.6953 21.701H55.0291L48.3625 5H48.3593ZM44.3595 15.0208L46.694 9.17171L49.0284 15.0208H44.3595Z" fill="#111111"/>
<path d="M31.6672 13.3511H23.3343V5H20.0005V21.701H23.3343V16.6906H31.6672V21.701H35.001V5H31.6672V13.3511Z" fill="#111111"/>
<path d="M86.6661 21.701H89.9999L83.3322 5H83.329H79.9984H79.9952L73.3286 21.701H76.6624L77.9953 18.3604H85.3321L86.6661 21.701ZM79.3293 15.0208L81.6637 9.17171L83.9981 15.0208H79.3293Z" fill="#111111"/>
<path d="M61.6618 5H58.3291V18.3615V21.701H61.6618H71.6622V18.3615H61.6618V5Z" fill="#111111"/>
<path d="M112.21 16.666H103.278L101.32 21H100.11L107.194 5.6H108.316L115.4 21H114.19L112.21 16.666ZM111.792 15.72L107.744 6.832L103.718 15.72H111.792ZM123.608 9.428C124.678 9.428 125.646 9.67733 126.512 10.176C127.377 10.6747 128.052 11.364 128.536 12.244C129.034 13.124 129.284 14.1287 129.284 15.258C129.284 16.3873 129.034 17.3993 128.536 18.294C128.052 19.174 127.377 19.8633 126.512 20.362C125.646 20.846 124.678 21.088 123.608 21.088C122.596 21.088 121.679 20.8533 120.858 20.384C120.036 19.9 119.398 19.2327 118.944 18.382V25.268H117.844V9.516H118.9V12.222C119.354 11.342 119.992 10.66 120.814 10.176C121.65 9.67733 122.581 9.428 123.608 9.428ZM123.542 20.098C124.422 20.098 125.214 19.8927 125.918 19.482C126.622 19.0713 127.172 18.4993 127.568 17.766C127.978 17.0327 128.184 16.1967 128.184 15.258C128.184 14.3193 127.978 13.4833 127.568 12.75C127.172 12.0167 126.622 11.4447 125.918 11.034C125.214 10.6233 124.422 10.418 123.542 10.418C122.662 10.418 121.87 10.6233 121.166 11.034C120.476 11.4447 119.926 12.0167 119.516 12.75C119.12 13.4833 118.922 14.3193 118.922 15.258C118.922 16.1967 119.12 17.0327 119.516 17.766C119.926 18.4993 120.476 19.0713 121.166 19.482C121.87 19.8927 122.662 20.098 123.542 20.098ZM138.453 9.428C139.524 9.428 140.492 9.67733 141.357 10.176C142.223 10.6747 142.897 11.364 143.381 12.244C143.88 13.124 144.129 14.1287 144.129 15.258C144.129 16.3873 143.88 17.3993 143.381 18.294C142.897 19.174 142.223 19.8633 141.357 20.362C140.492 20.846 139.524 21.088 138.453 21.088C137.441 21.088 136.525 20.8533 135.703 20.384C134.882 19.9 134.244 19.2327 133.789 18.382V25.268H132.689V9.516H133.745V12.222C134.2 11.342 134.838 10.66 135.659 10.176C136.495 9.67733 137.427 9.428 138.453 9.428ZM138.387 20.098C139.267 20.098 140.059 19.8927 140.763 19.482C141.467 19.0713 142.017 18.4993 142.413 17.766C142.824 17.0327 143.029 16.1967 143.029 15.258C143.029 14.3193 142.824 13.4833 142.413 12.75C142.017 12.0167 141.467 11.4447 140.763 11.034C140.059 10.6233 139.267 10.418 138.387 10.418C137.507 10.418 136.715 10.6233 136.011 11.034C135.322 11.4447 134.772 12.0167 134.361 12.75C133.965 13.4833 133.767 14.3193 133.767 15.258C133.767 16.1967 133.965 17.0327 134.361 17.766C134.772 18.4993 135.322 19.0713 136.011 19.482C136.715 19.8927 137.507 20.098 138.387 20.098Z" fill="#111111"/>
</svg>
