<svg width="1036" height="400" viewBox="0 0 1036 400" fill="none" xmlns="http://www.w3.org/2000/svg">
<path d="M496 169.99H472C470.895 169.99 470 170.885 470 171.99V267.99C470 269.095 470.895 269.99 472 269.99H496C497.105 269.99 498 269.095 498 267.99V171.99C498 170.885 497.105 169.99 496 169.99Z" fill="currentColor"/>
<path d="M604.4 189.82C601.163 183.744 596.136 178.811 590 175.69C583.55 172.53 576.442 170.947 569.26 171.07C561.517 170.934 553.863 172.743 547 176.33C544.298 177.769 541.788 179.543 539.53 181.61C539.315 181.804 539.048 181.932 538.762 181.977C538.476 182.022 538.183 181.983 537.919 181.864C537.654 181.746 537.431 181.552 537.275 181.308C537.119 181.064 537.037 180.78 537.04 180.49V172C537.04 171.47 536.829 170.961 536.454 170.586C536.079 170.211 535.57 170 535.04 170H512C511.47 170 510.961 170.211 510.586 170.586C510.211 170.961 510 171.47 510 172V268C510 268.53 510.211 269.039 510.586 269.414C510.961 269.789 511.47 270 512 270H536.26C536.79 270 537.299 269.789 537.674 269.414C538.049 269.039 538.26 268.53 538.26 268V221.8C538.26 215.76 539.26 210.81 541.26 206.95C543.066 203.275 545.984 200.262 549.6 198.34C553.31 196.437 557.431 195.473 561.6 195.53C567.88 195.53 572.74 197.403 576.18 201.15C579.62 204.897 581.343 210.693 581.35 218.54V268C581.35 268.53 581.561 269.039 581.936 269.414C582.311 269.789 582.82 270 583.35 270H607.61C608.14 270 608.649 269.789 609.024 269.414C609.399 269.039 609.61 268.53 609.61 268V214.19C609.637 204.29 607.9 196.167 604.4 189.82Z" fill="currentColor"/>
<path d="M718.19 138.71C706.517 132.91 693.083 130.01 677.89 130.01H624C623.47 130.01 622.961 130.221 622.586 130.596C622.211 130.971 622 131.48 622 132.01V268C622 268.53 622.211 269.039 622.586 269.414C622.961 269.789 623.47 270 624 270H677.89C693.09 270 706.523 267.1 718.19 261.3C729.409 255.9 738.845 247.398 745.38 236.8C751.853 226.267 755.09 214 755.09 200C755.09 186 751.853 173.737 745.38 163.21C738.847 152.61 729.411 144.107 718.19 138.71ZM709.79 231.71C701.45 239.51 690.283 243.41 676.29 243.41H656.4C655.87 243.41 655.361 243.199 654.986 242.824C654.611 242.449 654.4 241.94 654.4 241.41V158.61C654.4 158.08 654.611 157.571 654.986 157.196C655.361 156.821 655.87 156.61 656.4 156.61H676.29C690.29 156.61 701.457 160.507 709.79 168.3C718.123 176.093 722.29 186.66 722.29 200C722.29 213.333 718.123 223.9 709.79 231.7V231.71Z" fill="currentColor"/>
<path d="M801.28 211.6H862.28C862.81 211.6 863.319 211.389 863.694 211.014C864.069 210.639 864.28 210.13 864.28 209.6V188.41C864.28 187.88 864.069 187.371 863.694 186.996C863.319 186.621 862.81 186.41 862.28 186.41H801.28C800.75 186.41 800.241 186.199 799.866 185.824C799.491 185.449 799.28 184.94 799.28 184.41V158C799.28 157.47 799.491 156.961 799.866 156.586C800.241 156.211 800.75 156 801.28 156H870.88C871.41 156 871.919 155.789 872.294 155.414C872.669 155.039 872.88 154.53 872.88 154V132C872.88 131.47 872.669 130.961 872.294 130.586C871.919 130.211 871.41 130 870.88 130H769.09C768.56 130 768.051 130.211 767.676 130.586C767.301 130.961 767.09 131.47 767.09 132V268C767.09 268.53 767.301 269.039 767.676 269.414C768.051 269.789 768.56 270 769.09 270H873.48C874.01 270 874.519 269.789 874.894 269.414C875.269 269.039 875.48 268.53 875.48 268V246C875.48 245.47 875.269 244.961 874.894 244.586C874.519 244.211 874.01 244 873.48 244H801.28C800.75 244 800.241 243.789 799.866 243.414C799.491 243.039 799.28 242.53 799.28 242V213.6C799.28 213.07 799.491 212.561 799.866 212.186C800.241 211.811 800.75 211.6 801.28 211.6Z" fill="currentColor"/>
<path d="M1024.59 148.41L1006.59 130.41C1006.22 130.038 1005.71 129.828 1005.18 129.828C1004.65 129.828 1004.14 130.038 1003.77 130.41L956.41 177.8C956.035 178.173 955.528 178.382 955 178.382C954.472 178.382 953.965 178.173 953.59 177.8L906.2 130.42C906.014 130.234 905.794 130.087 905.551 129.986C905.308 129.885 905.048 129.833 904.785 129.833C904.522 129.833 904.262 129.885 904.019 129.986C903.776 130.087 903.556 130.234 903.37 130.42L885.37 148.42C884.997 148.795 884.788 149.302 884.788 149.83C884.788 150.358 884.997 150.865 885.37 151.24L932.73 198.6C933.102 198.975 933.312 199.482 933.312 200.01C933.312 200.538 933.102 201.045 932.73 201.42L885.41 248.8C885.224 248.986 885.077 249.206 884.976 249.449C884.875 249.692 884.823 249.952 884.823 250.215C884.823 250.478 884.875 250.738 884.976 250.981C885.077 251.224 885.224 251.444 885.41 251.63L903.41 269.63C903.596 269.816 903.816 269.963 904.059 270.064C904.302 270.165 904.562 270.217 904.825 270.217C905.088 270.217 905.348 270.165 905.591 270.064C905.834 269.963 906.054 269.816 906.24 269.63L953.63 222.27C954.005 221.897 954.512 221.688 955.04 221.688C955.568 221.688 956.075 221.897 956.45 222.27L1003.81 269.63C1004.18 270.003 1004.69 270.212 1005.22 270.212C1005.75 270.212 1006.26 270.003 1006.63 269.63L1024.63 251.63C1024.82 251.444 1024.96 251.224 1025.06 250.981C1025.16 250.738 1025.22 250.478 1025.22 250.215C1025.22 249.952 1025.16 249.692 1025.06 249.449C1024.96 249.206 1024.82 248.986 1024.63 248.8L977.2 201.41C976.828 201.035 976.618 200.528 976.618 200C976.618 199.472 976.828 198.965 977.2 198.59L1024.58 151.23C1024.95 150.857 1025.16 150.35 1025.17 149.822C1025.17 149.294 1024.96 148.786 1024.59 148.41Z" fill="currentColor"/>
<path d="M496.02 129.99H471.98C470.886 129.99 470 130.876 470 131.97V156.01C470 157.104 470.886 157.99 471.98 157.99H496.02C497.114 157.99 498 157.104 498 156.01V131.97C498 130.876 497.114 129.99 496.02 129.99Z" fill="currentColor"/>
<path fill-rule="evenodd" clip-rule="evenodd" d="M17 44.94C10 58.63 10 76.56 10 112.4L9.94 287.6C9.94 323.44 9.94 341.36 16.94 355.05C23.0725 367.113 32.8769 376.917 44.94 383.05C58.64 390.05 76.56 390.05 112.4 390.05H287.6C323.44 390.05 341.37 390.05 355.06 383.05C367.123 376.917 376.927 367.113 383.06 355.05C390.06 341.36 390.06 323.44 390.06 287.6V112.4C390.06 76.56 390.06 58.63 383.06 44.94C376.926 32.8781 367.122 23.0742 355.06 16.94C341.37 9.94 323.44 9.94 287.6 9.94H112.46C76.62 9.94 58.7 9.94 45 16.94C32.9381 23.0742 23.1342 32.8781 17 44.94ZM297.609 136.301C299.174 139.013 299.999 142.089 300 145.22L300.05 308.37C300.05 309.632 299.548 310.843 298.656 311.736C297.763 312.629 296.552 313.13 295.29 313.13H241.76C240.498 313.13 239.287 312.629 238.394 311.736C237.501 310.843 237 309.632 237 308.37V174.75C236.992 173.705 236.711 172.679 236.185 171.776C235.658 170.873 234.905 170.123 234 169.6L189.38 143.87C188.838 143.558 188.363 143.143 187.982 142.647C187.601 142.151 187.322 141.585 187.161 140.981C186.999 140.377 186.958 139.748 187.04 139.128C187.123 138.508 187.326 137.911 187.64 137.37L214.41 91C215.04 89.9087 216.077 89.1117 217.293 88.7837C218.51 88.4556 219.807 88.6233 220.9 89.25L291.08 129.77C293.791 131.337 296.043 133.589 297.609 136.301ZM158.29 86.87H104.76C102.131 86.87 100 89.0011 100 91.63V145.16C100 147.789 102.131 149.92 104.76 149.92H158.29C160.919 149.92 163.05 147.789 163.05 145.16V91.63C163.05 89.0011 160.919 86.87 158.29 86.87ZM166 230.4L210.62 256.14C211.162 256.452 211.637 256.867 212.018 257.363C212.399 257.859 212.678 258.425 212.839 259.029C213.001 259.633 213.042 260.262 212.96 260.882C212.877 261.502 212.674 262.099 212.36 262.64L185.59 309.01C184.958 310.1 183.921 310.894 182.704 311.221C181.488 311.547 180.192 311.378 179.1 310.75L108.92 270.23C106.209 268.663 103.957 266.411 102.391 263.699C100.826 260.987 100.001 257.911 100 254.78V173.58C100.003 172.319 100.505 171.111 101.398 170.221C102.29 169.33 103.499 168.83 104.76 168.83H158.24C159.501 168.83 160.71 169.33 161.602 170.221C162.495 171.111 162.997 172.319 163 173.58V225.25C163.008 226.295 163.289 227.321 163.815 228.224C164.342 229.127 165.095 229.877 166 230.4Z" fill="currentColor"/>
</svg>
