<svg viewBox="0 0 133 47" fill="none" xmlns="http://www.w3.org/2000/svg" class="css-19ik4vw">
  <g clip-path="url(#clip0_4581_8841)">
    <g opacity="0.75">
      <path
        d="M44.15 39.3403C43.7218 40.529 42.9617 41.5701 41.96 42.3403C40.9395 43.035 39.7237 43.3854 38.49 43.3403C37.5483 43.3716 36.6106 43.2034 35.7385 42.8466C34.8665 42.4898 34.0798 41.9526 33.4301 41.2702C32.0781 39.7919 31.36 37.8423 31.4301 35.8403C31.3336 33.8435 32.0064 31.8858 33.3101 30.3702C33.9526 29.6995 34.7311 29.174 35.5935 28.829C36.4559 28.484 37.3822 28.3276 38.3101 28.3702C39.5589 28.3289 40.7894 28.6785 41.83 29.3702C42.7962 30.109 43.4977 31.1402 43.83 32.3102L43.89 32.4902H46.3V26.0202H43.71V27.4803C43.0898 26.9318 42.3701 26.5074 41.59 26.2303C40.493 25.8381 39.3349 25.645 38.17 25.6602C36.8537 25.6269 35.5449 25.8705 34.3287 26.3752C33.1125 26.88 32.0159 27.6346 31.11 28.5903C29.3052 30.6072 28.3075 33.2187 28.3075 35.9252C28.3075 38.6318 29.3052 41.2433 31.11 43.2603C32.0473 44.2141 33.1715 44.964 34.4122 45.463C35.6529 45.962 36.9834 46.1994 38.3201 46.1602C40.324 46.2213 42.2899 45.6047 43.9 44.4102C45.4327 43.1738 46.4923 41.4468 46.9 39.5202L46.98 39.2102H44.11L44.15 39.3403Z"
        fill="currentColor"></path>
      <path
        d="M55.3101 32.6806C54.3914 32.6499 53.4759 32.803 52.6173 33.131C51.7587 33.459 50.9743 33.9553 50.3101 34.5906C49.6784 35.2131 49.1768 35.9549 48.8345 36.7729C48.4921 37.5909 48.3158 38.4688 48.3158 39.3556C48.3158 40.2424 48.4921 41.1203 48.8345 41.9383C49.1768 42.7564 49.6784 43.4982 50.3101 44.1206C51.6671 45.363 53.4402 46.0521 55.28 46.0521C57.1199 46.0521 58.893 45.363 60.25 44.1206C60.8804 43.4975 61.381 42.7555 61.7225 41.9375C62.0641 41.1196 62.24 40.242 62.24 39.3556C62.24 38.4692 62.0641 37.5916 61.7225 36.7737C61.381 35.9558 60.8804 35.2137 60.25 34.5906C59.5926 33.963 58.8179 33.4713 57.9702 33.1435C57.1225 32.8158 56.2186 32.6585 55.3101 32.6806ZM59.39 39.3506C59.4126 39.914 59.3216 40.4762 59.1223 41.0036C58.923 41.531 58.6195 42.0129 58.23 42.4206C57.8542 42.8136 57.4002 43.1235 56.8972 43.3301C56.3943 43.5368 55.8536 43.6358 55.3101 43.6206C54.7686 43.6355 54.2301 43.5353 53.7302 43.3267C53.2303 43.1181 52.7804 42.8059 52.41 42.4106C51.6573 41.5691 51.2412 40.4796 51.2412 39.3506C51.2412 38.2216 51.6573 37.1321 52.41 36.2906C53.1824 35.52 54.229 35.0872 55.3201 35.0872C56.4112 35.0872 57.4576 35.52 58.23 36.2906C58.6155 36.699 58.9165 37.1796 59.1156 37.7048C59.3147 38.2299 59.4079 38.7893 59.39 39.3506Z"
        fill="currentColor"></path>
      <path
        d="M76.42 36.8599C76.436 36.3224 76.3856 35.785 76.27 35.2599C76.1582 34.9 75.9857 34.5618 75.76 34.2599C75.3892 33.7504 74.8885 33.3498 74.3101 33.0999C73.6786 32.8295 72.9968 32.6965 72.3101 32.7099C71.4784 32.7057 70.6559 32.8831 69.9 33.2299C69.2458 33.5461 68.6397 33.9534 68.1 34.4399V33.0299H63.4301V35.3699H65.3201V43.4399H63.4301V45.7799H70.01V43.4399H68.12V37.2299C68.6495 36.6486 69.263 36.1498 69.9401 35.7499C70.4837 35.4431 71.0958 35.278 71.72 35.2699C71.9884 35.2393 72.2603 35.2703 72.515 35.3604C72.7697 35.4505 73.0006 35.5974 73.1901 35.7899C73.581 36.5217 73.7347 37.3569 73.63 38.1799V43.4399H71.77V45.7799H78.3V43.4399H76.4301L76.42 36.8599Z"
        fill="currentColor"></path>
      <path
        d="M83.08 28.4307H80.41V33.0007H78.1901V35.3407H80.41V43.2507C80.3751 43.6116 80.4157 43.9758 80.5293 44.3202C80.6429 44.6645 80.8272 44.9814 81.0701 45.2507C81.7234 45.7055 82.5181 45.9113 83.3101 45.8307C83.7301 45.8307 84.09 45.8307 84.4 45.8307C84.71 45.8307 85 45.7707 85.27 45.7307H85.48V43.3007H85.0601C84.7924 43.3553 84.522 43.3954 84.25 43.4207C83.53 43.4207 83.33 43.2707 83.25 43.2007C83.17 43.1307 83.05 42.8607 83.05 41.5807V35.3507H85.45V33.0107H83.05L83.08 28.4307Z"
        fill="currentColor"></path>
      <path
        d="M95.46 32.6605H95.1801C94.301 32.6342 93.4299 32.8339 92.65 33.2405C92.1518 33.5231 91.7162 33.9042 91.37 34.3605V33.0105H86.7V35.3505H88.6V43.4205H86.7V45.7605H93.26V43.4205H91.37V38.7505C91.342 38.2739 91.4168 37.7969 91.5894 37.3517C91.7619 36.9066 92.0281 36.5037 92.37 36.1705C93.1297 35.5206 94.112 35.1907 95.11 35.2505H96V32.6905H95.75L95.46 32.6605Z"
        fill="currentColor"></path>
      <path
        d="M106.82 34.2299C106.369 33.792 105.844 33.4366 105.27 33.1799C104.474 32.8379 103.616 32.6676 102.75 32.6799C101.882 32.6632 101.02 32.826 100.218 33.1582C99.4165 33.4903 98.6919 33.9845 98.09 34.6099C96.8895 35.9043 96.2225 37.6045 96.2225 39.3699C96.2225 41.1353 96.8895 42.8355 98.09 44.1299C99.0243 45.0509 100.21 45.6759 101.497 45.9267C102.785 46.1775 104.118 46.0429 105.33 45.5399C105.884 45.3003 106.389 44.9614 106.82 44.5399V45.7699H111.5V43.4299H109.63V35.3599H111.5V33.0199H106.82V34.2299ZM105.82 36.3199C106.549 37.1728 106.949 38.2579 106.949 39.3799C106.949 40.5018 106.549 41.5869 105.82 42.4399C105.459 42.8186 105.024 43.1202 104.543 43.3262C104.062 43.5322 103.544 43.6384 103.02 43.6384C102.497 43.6384 101.978 43.5322 101.497 43.3262C101.016 43.1202 100.581 42.8186 100.22 42.4399C99.4505 41.6106 99.0406 40.5104 99.08 39.3799C99.0368 38.2542 99.4352 37.1561 100.19 36.3199C100.558 35.9465 100.996 35.6499 101.479 35.4475C101.962 35.2451 102.481 35.1408 103.005 35.1408C103.529 35.1408 104.048 35.2451 104.531 35.4475C105.014 35.6499 105.453 35.9465 105.82 36.3199Z"
        fill="currentColor"></path>
      <path
        d="M123.12 41.7802C122.646 42.3637 122.057 42.8436 121.39 43.1902C120.767 43.4934 120.083 43.6475 119.39 43.6402C118.864 43.6743 118.336 43.5936 117.844 43.4036C117.352 43.2137 116.907 42.9191 116.54 42.5402C115.825 41.6673 115.468 40.556 115.54 39.4302C115.5 38.287 115.853 37.1646 116.54 36.2502C116.831 35.8721 117.207 35.5687 117.639 35.3652C118.07 35.1618 118.543 35.0641 119.02 35.0802C119.758 35.0613 120.484 35.2785 121.09 35.7002C121.718 36.176 122.191 36.8266 122.45 37.5702L122.52 37.7302H124.52V33.0002H122.23V33.8502C121.841 33.5204 121.402 33.2538 120.93 33.0602C120.227 32.797 119.481 32.6681 118.73 32.6802C117.906 32.6514 117.086 32.804 116.327 33.1271C115.569 33.4502 114.89 33.936 114.34 34.5502C113.182 35.905 112.585 37.6503 112.67 39.4302C112.587 41.2005 113.205 42.9321 114.39 44.2502C114.983 44.8631 115.7 45.3425 116.494 45.6563C117.287 45.9702 118.138 46.1113 118.99 46.0702C120.107 46.0877 121.213 45.8446 122.22 45.3602C123.207 44.8797 124.066 44.1741 124.73 43.3002L124.86 43.1302L123.29 41.5802L123.12 41.7802Z"
        fill="currentColor"></path>
      <path
        d="M132.39 35.3407V33.0007H130.01V28.4307H127.35V33.0007H125.13V35.3407H127.35V43.2507C127.316 43.6107 127.356 43.9739 127.468 44.3179C127.58 44.6619 127.761 44.9793 128 45.2507C128.657 45.7054 129.455 45.9111 130.25 45.8307C130.66 45.8307 131.03 45.8307 131.34 45.8307C131.65 45.8307 131.94 45.7707 132.21 45.7307H132.42V43.3007H132C131.732 43.3545 131.462 43.3945 131.19 43.4207C130.47 43.4207 130.27 43.2707 130.19 43.2007C130.11 43.1307 129.99 42.8607 129.99 41.5807V35.3507L132.39 35.3407Z"
        fill="currentColor"></path>
    </g>
    <path d="M98.39 0.850586H95.5V21.2606H98.39V0.850586Z" fill="#6FB74E"></path>
    <path d="M92.61 7.75977H89.72V10.6498H92.61V7.75977Z" fill="#6FB74E"></path>
    <path d="M92.61 18.3701H89.72V21.2601H92.61V18.3701Z" fill="#6FB74E"></path>
    <path
      d="M25.8 23.4102L21.3 27.9102L3.09 46.1202L0.06 43.1002L19.68 23.4802L0 3.8002L3.09 0.700195L21.3 18.9202L25.8 23.4102Z"
      fill="#6FB74E"></path>
    <path
      d="M37.52 0.700195H28.23V3.70019H30.37V18.4502H28.23V21.4502H36.38V18.4502H34.01V13.9202H37.5601C39.3131 13.9202 40.9944 13.2238 42.234 11.9842C43.4736 10.7446 44.17 9.06327 44.17 7.31019C44.17 5.55711 43.4736 3.87584 42.234 2.63622C40.9944 1.39661 39.3131 0.700195 37.5601 0.700195H37.52ZM37.24 10.9402H34.01V3.6802H37.28C38.2428 3.6802 39.166 4.06264 39.8468 4.7434C40.5276 5.42416 40.91 6.34745 40.91 7.31019C40.91 8.27292 40.5276 9.19623 39.8468 9.87699C39.166 10.5577 38.2428 10.9402 37.28 10.9402H37.24Z"
      fill="currentColor"></path>
    <path
      d="M58.01 13.52C58.0139 12.5147 57.7612 11.5251 57.276 10.6447C56.7908 9.76432 56.089 9.02223 55.2371 8.48864C54.3851 7.95505 53.4111 7.64759 52.4072 7.59533C51.4033 7.54307 50.4027 7.74774 49.5 8.18999V0.75H44.23V3.68H46.15V18.52H44.23V21.41H51.4401V18.52H49.5V13.52C49.5 12.8357 49.7718 12.1795 50.2556 11.6957C50.7395 11.2118 51.3957 10.94 52.08 10.94C52.7642 10.94 53.4205 11.2118 53.9043 11.6957C54.3881 12.1795 54.66 12.8357 54.66 13.52V18.52H52.73V21.41H59.9401V18.52H58.01V13.52Z"
      fill="currentColor"></path>
    <path
      d="M81.7701 0.709961H78.5501V7.89996H70.61V9.11996C69.4842 8.32401 68.1388 7.89768 66.7601 7.89996C65.7003 7.89898 64.6553 8.14751 63.7095 8.62546C62.7637 9.1034 61.9436 9.79732 61.3158 10.651C60.688 11.5048 60.2701 12.4943 60.0957 13.5396C59.9214 14.5849 59.9956 15.6565 60.3124 16.6678C60.6292 17.679 61.1797 18.6015 61.9192 19.3605C62.6588 20.1195 63.5666 20.6937 64.5693 21.0367C65.5719 21.3797 66.6413 21.4817 67.6907 21.3346C68.7402 21.1875 69.7403 20.7954 70.61 20.19V21.4H75.6601V18.52H73.61V10.8H78.5501V17.24C78.5501 18.3459 78.9894 19.4066 79.7714 20.1886C80.5534 20.9706 81.6141 21.41 82.72 21.41H86.7801V18.52H83.0101C82.6812 18.52 82.3658 18.3893 82.1332 18.1568C81.9007 17.9242 81.7701 17.6088 81.7701 17.28V10.79H86.7701V7.89996H81.7701V0.709961ZM66.7701 18.51C66.0062 18.5119 65.2589 18.2872 64.6228 17.8643C63.9868 17.4414 63.4904 16.8392 63.1967 16.1341C62.903 15.4289 62.8253 14.6525 62.9731 13.9031C63.1209 13.1536 63.4877 12.4649 64.0271 11.9241C64.5666 11.3833 65.2543 11.0146 66.0033 10.8649C66.7524 10.7151 67.529 10.791 68.2349 11.0828C68.9408 11.3747 69.5442 11.8694 69.9688 12.5044C70.3934 13.1394 70.62 13.8861 70.62 14.65C70.6214 15.1577 70.5225 15.6607 70.3291 16.1302C70.1357 16.5997 69.8516 17.0264 69.4931 17.3859C69.1345 17.7454 68.7085 18.0306 68.2395 18.2252C67.7706 18.4198 67.2678 18.52 66.7601 18.52L66.7701 18.51Z"
      fill="currentColor"></path>
  </g>
  <defs>
    <clipPath id="clip0_4581_8841">
      <rect width="132.39" height="45.43" fill="white" transform="translate(0 0.700195)"></rect>
    </clipPath>
  </defs>
</svg>