<svg width="290" height="290" viewBox="0 0 290 290" fill="none" xmlns="http://www.w3.org/2000/svg">
<style>
  path {
    fill: black;
  }
  @media (prefers-color-scheme: dark) {
    path {
      fill: white;
    }
  }
</style>
<path d="M245 90.35C244.999 87.2186 244.174 84.1426 242.609 81.4307C241.043 78.7188 238.791 76.4666 236.08 74.9L165.9 34.38C164.807 33.7533 163.51 33.5856 162.293 33.9137C161.077 34.2417 160.04 35.0387 159.41 36.13L132.64 82.5C132.326 83.0408 132.123 83.6381 132.04 84.2578C131.958 84.8775 131.999 85.5074 132.161 86.1112C132.322 86.7151 132.601 87.2811 132.982 87.7768C133.363 88.2726 133.838 88.6882 134.38 89L179 114.73C179.905 115.253 180.658 116.003 181.185 116.906C181.711 117.809 181.992 118.835 182 119.88V253.5C182 254.762 182.501 255.973 183.394 256.866C184.287 257.759 185.498 258.26 186.76 258.26H240.29C241.552 258.26 242.763 257.759 243.656 256.866C244.548 255.973 245.05 254.762 245.05 253.5L245 90.35Z" fill="black"/>
<path d="M103.29 32H49.76C47.1311 32 45 34.1311 45 36.76V90.29C45 92.9189 47.1311 95.05 49.76 95.05H103.29C105.919 95.05 108.05 92.9189 108.05 90.29V36.76C108.05 34.1311 105.919 32 103.29 32Z" fill="black"/>
<path d="M155.62 201.27L111 175.53C110.095 175.007 109.342 174.257 108.815 173.354C108.289 172.451 108.008 171.425 108 170.38V118.71C107.997 117.449 107.495 116.241 106.602 115.351C105.71 114.46 104.501 113.96 103.24 113.96H49.76C48.4993 113.96 47.2901 114.46 46.3977 115.351C45.5053 116.241 45.0026 117.449 45 118.71V199.91C45.001 203.041 45.8257 206.117 47.3914 208.829C48.9571 211.541 51.2086 213.793 53.92 215.36L124.1 255.88C125.192 256.508 126.488 256.677 127.704 256.351C128.921 256.024 129.958 255.23 130.59 254.14L157.36 207.77C157.674 207.229 157.877 206.632 157.96 206.012C158.042 205.392 158.001 204.763 157.839 204.159C157.678 203.555 157.399 202.989 157.018 202.493C156.637 201.997 156.162 201.582 155.62 201.27Z" fill="black"/>
</svg>