<svg width="398" height="398" viewBox="0 0 398 398" fill="none" xmlns="http://www.w3.org/2000/svg">
<path d="M199 397.77C308.778 397.77 397.77 308.778 397.77 199C397.77 89.2224 308.778 0.230011 199 0.230011C89.2224 0.230011 0.229996 89.2224 0.229996 199C0.229996 308.778 89.2224 397.77 199 397.77Z" fill="black"/>
<path d="M269.63 202.53H136.87V246.79H269.63V202.53Z" fill="#CDFA50"/>
<path d="M313.89 136.15H269.63V202.54H313.89V136.15Z" fill="#CDFA50"/>
<path d="M136.87 246.8H92.6V257.86V268.93V313.18H136.86V268.93H136.87V246.8Z" fill="#CDFA50"/>
<path d="M269.63 91.89H136.87H130.5H92.6V180.41V194.54V202.54H136.87V194.54V180.41V136.15H269.63V91.89Z" fill="#CDFA50"/>
<path d="M269.63 202.53H136.87V246.79H269.63V202.53Z" fill="#CDFA50"/>
</svg>
