<svg width="90" height="17" viewBox="0 0 90 17" fill="none" xmlns="http://www.w3.org/2000/svg">
<path d="M16.6678 3.34058H13.334V8.35099H16.6678V3.34058Z" fill="#111111"/>
<path d="M0 12.526V13.3614V16.701H3.33382V13.3614V11.6917H0V12.526Z" fill="#111111"/>
<path d="M3.33382 7.74715V6.68019V3.34064H13.3342V0H3.33382H2.85429H0V6.68019V7.74715V8.35106H3.33382V11.6906H13.3342V8.35106H3.33382V7.74715Z" fill="#111111"/>
<path d="M48.3593 0H45.0287H45.0254L38.3589 16.701H41.6927L43.0256 13.3604H50.3624L51.6953 16.701H55.0291L48.3625 0H48.3593ZM44.3595 10.0208L46.694 4.17171L49.0284 10.0208H44.3595Z" fill="#111111"/>
<path d="M31.6672 8.35106H23.3343V0H20.0005V16.701H23.3343V11.6906H31.6672V16.701H35.001V0H31.6672V8.35106Z" fill="#111111"/>
<path d="M86.6661 16.701H89.9999L83.3322 0H83.329H79.9984H79.9952L73.3286 16.701H76.6624L77.9953 13.3604H85.3321L86.6661 16.701ZM79.3293 10.0208L81.6637 4.17171L83.9981 10.0208H79.3293Z" fill="#111111"/>
<path d="M61.6618 0H58.3291V13.3615V16.701H61.6618H71.6622V13.3615H61.6618V0Z" fill="#111111"/>
</svg>
