<svg id="visual" viewBox="0 0 960 540" width="960" height="540" xmlns="http://www.w3.org/2000/svg" xmlns:xlink="http://www.w3.org/1999/xlink" version="1.1">
  <path d="M0 352L32 351C64 350 128 348 192 352.5C256 357 320 368 384 360.7C448 353.3 512 327.7 576 330.5C640 333.3 704 364.7 768 374.3C832 384 896 372 928 366L960 360L960 541L928 541C896 541 832 541 768 541C704 541 640 541 576 541C512 541 448 541 384 541C320 541 256 541 192 541C128 541 64 541 32 541L0 541Z" fill="#f7f7f7" fill-opacity="0.08"></path>
  <path d="M0 378L32 376.7C64 375.3 128 372.7 192 368.7C256 364.7 320 359.3 384 364.2C448 369 512 384 576 381.2C640 378.3 704 357.7 768 353.7C832 349.7 896 362.3 928 368.7L960 375L960 541L928 541C896 541 832 541 768 541C704 541 640 541 576 541C512 541 448 541 384 541C320 541 256 541 192 541C128 541 64 541 32 541L0 541Z" fill="#d4d4d4" fill-opacity="0.08"></path>
  <path d="M0 444L32 439C64 434 128 424 192 412.8C256 401.7 320 389.3 384 397C448 404.7 512 432.3 576 446C640 459.7 704 459.3 768 442.3C832 425.3 896 391.7 928 374.8L960 358L960 541L928 541C896 541 832 541 768 541C704 541 640 541 576 541C512 541 448 541 384 541C320 541 256 541 192 541C128 541 64 541 32 541L0 541Z" fill="#b2b2b2" fill-opacity="0.08"></path>
  <path d="M0 474L32 469.7C64 465.3 128 456.7 192 457.7C256 458.7 320 469.3 384 465.2C448 461 512 442 576 428.8C640 415.7 704 408.3 768 407C832 405.7 896 410.3 928 412.7L960 415L960 541L928 541C896 541 832 541 768 541C704 541 640 541 576 541C512 541 448 541 384 541C320 541 256 541 192 541C128 541 64 541 32 541L0 541Z" fill="#919191" fill-opacity="0.08"></path>
  <path d="M0 457L32 461.2C64 465.3 128 473.7 192 474.5C256 475.3 320 468.7 384 474.3C448 480 512 498 576 501.8C640 505.7 704 495.3 768 486C832 476.7 896 468.3 928 464.2L960 460L960 541L928 541C896 541 832 541 768 541C704 541 640 541 576 541C512 541 448 541 384 541C320 541 256 541 192 541C128 541 64 541 32 541L0 541Z" fill="#727272" fill-opacity="0.08"></path>
</svg>