<svg width="48" height="48" viewBox="0 0 48 48" fill="none" xmlns="http://www.w3.org/2000/svg">
  <path d="M30.3139 39.795H42.9482C43.2211 39.8132 43.4782 39.9298 43.6716 40.1231C43.8651 40.3165 43.9817 40.5734 44 40.8462V42.9487C43.9983 43.227 43.8869 43.4934 43.6901 43.6902C43.4932 43.887 43.2266 43.9983 42.9482 44H30.3139C30.041 43.9818 29.7839 43.8652 29.5905 43.6718C29.3971 43.4785 29.2804 43.2215 29.2621 42.9487V40.8462C29.2621 40.5674 29.3729 40.3 29.5702 40.1029C29.7674 39.9057 30.035 39.795 30.3139 39.795Z" fill="currentColor" />
  <path d="M30.3139 33.4808H42.9482C43.2211 33.4991 43.4782 33.6157 43.6716 33.8091C43.8651 34.0024 43.9817 34.2593 44 34.5321V36.6606C44 36.9394 43.8892 37.2068 43.6919 37.404C43.4947 37.6011 43.2272 37.7119 42.9482 37.7119H30.3139C30.041 37.6936 29.7839 37.577 29.5905 37.3837C29.3971 37.1904 29.2804 36.9334 29.2621 36.6606V34.5581C29.2587 34.4179 29.2833 34.2784 29.3346 34.1478C29.3859 34.0172 29.4628 33.8983 29.5609 33.7979C29.6589 33.6975 29.776 33.6178 29.9053 33.5633C30.0346 33.5089 30.1736 33.4808 30.3139 33.4808Z" fill="currentColor" />
  <path d="M30.3139 27.1668H42.9482C43.2207 27.1864 43.477 27.3034 43.6701 27.4965C43.8633 27.6895 43.9804 27.9457 44 28.218V30.3271C43.9983 30.6053 43.8869 30.8718 43.6901 31.0686C43.4932 31.2653 43.2266 31.3766 42.9482 31.3783H30.3139C30.0414 31.3587 29.7851 31.2417 29.592 31.0486C29.3988 30.8556 29.2817 30.5994 29.2621 30.3271V28.2245C29.2621 27.9451 29.3727 27.6771 29.5698 27.4789C29.7669 27.2807 30.0344 27.1685 30.3139 27.1668Z" fill="currentColor" />
  <path d="M35.5793 13.4938C35.5655 13.2157 35.458 12.9504 35.2741 12.7411L26.834 4.30502C26.6238 4.12671 26.3623 4.01987 26.0873 4H5.05178C4.77224 4.00171 4.50472 4.11393 4.30766 4.31211C4.1106 4.51029 3.99999 4.77834 4 5.05776V42.9293C4 43.2081 4.11081 43.4755 4.30806 43.6726C4.5053 43.8698 4.77284 43.9806 5.05178 43.9806H26.1068C26.3858 43.9806 26.6533 43.8698 26.8505 43.6726C27.0478 43.4755 27.1586 43.2081 27.1586 42.9293V28.2245C27.1577 27.8101 27.2387 27.3996 27.397 27.0166C27.5553 26.6336 27.7877 26.2856 28.0808 25.9926C28.374 25.6995 28.7222 25.4673 29.1054 25.3091C29.4886 25.1509 29.8993 25.0699 30.3139 25.0707H34.5275C34.8054 25.0674 35.071 24.9555 35.2675 24.7591C35.464 24.5627 35.5759 24.2973 35.5793 24.0195V13.4938ZM26.1068 13.4938V6.16094L33.4757 13.5263L26.1068 13.4938ZM22.945 22.9617C23.0836 22.9609 23.2211 22.9874 23.3495 23.0399C23.4778 23.0923 23.5945 23.1696 23.6929 23.2673C23.7913 23.365 23.8693 23.4812 23.9226 23.6092C23.9758 23.7372 24.0032 23.8744 24.0032 24.013V28.2245C24.0003 28.5043 23.8885 28.772 23.6916 28.9708C23.4924 29.1664 23.2242 29.2759 22.945 29.2758H20.8414V30.3271C20.8414 30.6059 20.7306 30.8733 20.5334 31.0704C20.3361 31.2676 20.0686 31.3783 19.7896 31.3783C19.5107 31.3783 19.2432 31.2676 19.0459 31.0704C18.8487 30.8733 18.7379 30.6059 18.7379 30.3271V29.2758H16.6343C16.3554 29.2758 16.0878 29.165 15.8906 28.9679C15.6933 28.7707 15.5825 28.5033 15.5825 28.2245C15.5825 27.9457 15.6933 27.6783 15.8906 27.4812C16.0878 27.284 16.3554 27.1733 16.6343 27.1733H21.8932V25.0707H16.6343C16.3554 25.0707 16.0878 24.96 15.8906 24.7628C15.6933 24.5657 15.5825 24.2983 15.5825 24.0195V19.7885C15.5825 19.5096 15.6933 19.2423 15.8906 19.0451C16.0878 18.848 16.3554 18.7372 16.6343 18.7372H18.7379V17.6859C18.7379 17.4071 18.8487 17.1397 19.0459 16.9426C19.2432 16.7454 19.5107 16.6347 19.7896 16.6347C20.0686 16.6347 20.3361 16.7454 20.5334 16.9426C20.7306 17.1397 20.8414 17.4071 20.8414 17.6859V18.7372H22.945C23.2239 18.7372 23.4915 18.848 23.6887 19.0451C23.8859 19.2423 23.9968 19.5096 23.9968 19.7885C23.9968 20.0673 23.8859 20.3347 23.6887 20.5318C23.4915 20.729 23.2239 20.8397 22.945 20.8397H17.7186V22.9487L22.945 22.9617Z" fill="currentColor" />
</svg>