<svg width="120" height="32" viewBox="0 0 120 32" fill="none"
  xmlns="http://www.w3.org/2000/svg">
  <path d="M16.686 0.0990257C16.9184 -0.0330085 17.203 -0.0330086 17.4354 0.0990255L23.8769 3.75991C24.0048 3.83263 24.0047 4.01708 23.8767 4.08964L21.7024 5.32174C21.4702 5.45331 21.1859 5.45313 20.9539 5.32127L17.4349 3.32134C17.2028 3.18945 16.9185 3.1893 16.6863 3.32094L13.1694 5.31474C12.9375 5.44622 12.6536 5.44625 12.4216 5.31481L10.2521 4.08543C10.1241 4.01287 10.124 3.82842 10.2519 3.7557L16.686 0.0990257Z" fill="white"/>
  <path d="M7.49125 5.74844L9.66133 6.97382C9.78947 7.04617 9.7899 7.23056 9.6621 7.30351L6.26666 9.24174C6.01112 9.38762 6.01193 9.75634 6.26812 9.90108L9.65182 11.8129C9.77996 11.8853 9.78031 12.0698 9.65245 12.1426L7.49139 13.3744C7.25474 13.5093 7.10862 13.7608 7.10862 14.0332V25.8472C7.10862 26.1382 6.79436 26.3208 6.54161 26.1765L0.382484 22.6624C0.14599 22.5274 0 22.2761 0 22.0038V10.0233C0 9.7506 0.146477 9.49888 0.383598 9.36412L6.74376 5.74947C6.97543 5.61781 7.25921 5.61742 7.49125 5.74844Z" fill="white"/>
  <path d="M21.7044 13.7977L23.7849 14.9766C24.0225 15.1112 24.1693 15.3632 24.1693 15.6363V27.6866C24.1693 27.9611 24.021 28.2141 23.7816 28.3482L17.4331 31.9033C17.2019 32.0328 16.9199 32.0322 16.6892 31.9017L10.337 28.308C10.0991 28.1734 9.95207 27.9213 9.95207 27.648V15.4154C9.95207 15.2788 10.0255 15.1528 10.1443 15.0855L12.417 13.7977C12.6486 13.6664 12.932 13.6662 13.1638 13.7972L16.6877 15.7882C16.9192 15.919 17.2022 15.919 17.4337 15.7882L20.9576 13.7972C21.1894 13.6662 21.4728 13.6664 21.7044 13.7977Z" fill="white"/>
  <path d="M26.5475 5.74644L24.3739 6.97382C24.2457 7.04617 24.2453 7.23056 24.3731 7.30351L27.7685 9.24174C28.0241 9.38762 28.0233 9.75634 27.7671 9.90108L24.3834 11.8129C24.2552 11.8853 24.2549 12.0698 24.3828 12.1426L26.5438 13.3744C26.7805 13.5093 26.9266 13.7608 26.9266 14.0332V25.85C26.9266 26.1404 27.2396 26.323 27.4924 26.18L33.7365 22.6481C33.9743 22.5135 34.1214 22.2614 34.1214 21.9881V9.99919C34.1214 9.72424 33.9726 9.47084 33.7324 9.33693L27.2896 5.74444C27.0588 5.61574 26.7776 5.6165 26.5475 5.74644Z" fill="white"/>
  <path fill-rule="evenodd" clip-rule="evenodd" d="M51.2609 11.3732C50.5787 11.0173 49.8175 10.8394 48.9771 10.8394H45.1214V21.0125H48.9771C49.8175 21.0125 50.5787 20.8346 51.2609 20.4786C51.9529 20.1227 52.5016 19.6037 52.907 18.9215C53.3123 18.2394 53.515 17.4336 53.515 16.5043V15.3476C53.515 14.4183 53.3123 13.6125 52.907 12.9303C52.5016 12.2482 51.9529 11.7291 51.2609 11.3732ZM48.9771 19.1885H47.42V12.6634H48.9771C49.6098 12.6634 50.1239 12.871 50.5194 13.2863C50.9149 13.6916 51.1126 14.27 51.1126 15.0213V16.8305C51.1126 17.5819 50.9149 18.1652 50.5194 18.5804C50.1239 18.9858 49.6098 19.1885 48.9771 19.1885ZM63.3549 21.0125H65.6387V17.0827H68.2635C68.8271 17.0827 69.3412 16.9442 69.8058 16.6674C70.2804 16.3906 70.6511 16.0149 70.9181 15.5404C71.1949 15.0559 71.3333 14.5319 71.3333 13.9684V13.8794C71.3333 13.306 71.1949 12.787 70.9181 12.3223C70.6412 11.8577 70.2655 11.4968 69.791 11.2398C69.3263 10.9728 68.8172 10.8394 68.2635 10.8394H63.3549V21.0125ZM67.7297 15.2883H65.6387V12.6634H67.7297C68.1152 12.6634 68.4267 12.7919 68.6639 13.049C68.9111 13.2961 69.0347 13.5927 69.0347 13.9388V14.0277C69.0347 14.3639 68.9111 14.6605 68.6639 14.9175C68.4168 15.1647 68.1054 15.2883 67.7297 15.2883ZM78.1982 21.0125V16.7712H74.6835V21.0125H72.3849V10.8394H74.6687V14.873H78.1982V10.8394H80.4819V21.0125H78.1982ZM87.1465 17.1123V21.0125H84.8627V17.1123L81.3777 10.8394H83.9581L86.0787 14.873H86.1529L88.2735 10.8394H90.6166L87.1465 17.1123ZM61.9316 18.1799C61.9316 18.8423 61.7734 19.4009 61.4571 19.8557C61.1407 20.3005 60.7205 20.6317 60.1965 20.8492C59.6824 21.0569 59.1189 21.1607 58.5059 21.1607H58.2687C57.5667 21.1607 56.934 21.0124 56.3705 20.7158C55.8069 20.4192 55.3621 19.9941 55.0358 19.4404C54.7194 18.8769 54.5612 18.2096 54.5612 17.4384V17.0084C54.5612 16.2471 54.7244 15.5847 55.0506 15.0212C55.3769 14.4577 55.8168 14.0276 56.3705 13.731C56.934 13.4344 57.5667 13.2861 58.2687 13.2861H58.5059C59.1189 13.2861 59.6874 13.4146 60.2114 13.6717C60.7353 13.9188 61.1555 14.2846 61.4719 14.7691C61.7882 15.2436 61.9464 15.8072 61.9464 16.4597V17.5867H56.756V17.9426C56.756 18.4369 56.8994 18.8522 57.1861 19.1883C57.4827 19.5146 57.8831 19.6777 58.3873 19.6777C58.8421 19.6777 59.198 19.5541 59.455 19.307C59.722 19.0499 59.8554 18.6742 59.8554 18.1799H61.9316ZM58.2835 14.7691C57.8485 14.7691 57.4926 14.9223 57.2158 15.2288C56.9488 15.5353 56.7956 15.9258 56.756 16.4003H59.7516C59.7516 15.8961 59.633 15.5007 59.3957 15.214C59.1683 14.9174 58.7976 14.7691 58.2835 14.7691Z" fill="white"/>
  <path fill-rule="evenodd" clip-rule="evenodd" d="M16.8043 6.42927L11.617 9.38953C11.4895 9.4623 11.4897 9.64693 11.6174 9.71938L16.8052 12.6626C16.9204 12.728 17.0614 12.728 17.1766 12.6626L22.3644 9.71938C22.4921 9.64693 22.4923 9.4623 22.3648 9.38953L17.1774 6.42927C17.0618 6.36326 16.92 6.36326 16.8043 6.42927ZM16.8043 8.04056L14.4488 9.38481C14.3212 9.45759 14.3215 9.64221 14.4492 9.71466L16.8052 11.0513C16.9204 11.1167 17.0614 11.1167 17.1766 11.0513L19.5326 9.71466C19.6603 9.64221 19.6605 9.45759 19.533 9.38481L17.1774 8.04056C17.0618 7.97454 16.92 7.97455 16.8043 8.04056Z" fill="#E4A055"/>
</svg>
