<svg width="48" height="48" viewBox="0 0 48 48" fill="none" xmlns="http://www.w3.org/2000/svg">
  <path d="M18.9947 3.01659H28.9996V5.87884H18.9947V3.01659Z" fill="currentColor" />
  <path d="M36.1194 3.83437C35.5563 3.29943 34.7938 2.99936 33.9991 3H30.9982V5.86225C30.9974 6.36663 30.7894 6.85064 30.4189 7.2105C30.0412 7.56678 29.5307 7.76552 28.9996 7.76305H18.9947C18.4635 7.76552 17.953 7.56678 17.5754 7.2105C17.2048 6.85064 16.9969 6.36663 16.9961 5.86225V3H13.9952C13.5999 2.99999 13.2085 3.07461 12.8436 3.21955C12.4787 3.3645 12.1475 3.5769 11.8691 3.84452C11.5907 4.11214 11.3705 4.42967 11.2214 4.77882C11.0722 5.12797 10.997 5.50184 11.0001 5.87884V42.1377C11.0016 42.8964 11.3183 43.6236 11.8807 44.1601C12.4432 44.6965 13.2056 44.9985 14.001 45H33.9991C34.7945 44.9985 35.5569 44.6965 36.1193 44.1601C36.6818 43.6236 36.9984 42.8964 37 42.1377V5.87884C37.0016 5.49954 36.9247 5.12364 36.7736 4.77278C36.6225 4.42192 36.4001 4.10302 36.1194 3.83437ZM21.2772 20.1128L23.8031 17.1952C23.839 17.1555 23.8834 17.1236 23.9334 17.1018C23.9834 17.0799 24.0377 17.0686 24.0927 17.0686C24.1477 17.0686 24.202 17.0799 24.252 17.1018C24.302 17.1236 24.3465 17.1555 24.3824 17.1952L26.9082 20.1128C26.9494 20.161 26.98 20.2167 26.9979 20.2766C27.0158 20.3364 27.0208 20.3991 27.0125 20.4609L26.1957 28.3182C26.187 28.4308 26.133 28.5357 26.045 28.6111L24.3418 30.103C24.2717 30.1672 24.1783 30.203 24.0811 30.203C23.984 30.203 23.8906 30.1672 23.8204 30.103L22.1172 28.6111C22.0292 28.5357 21.9753 28.4308 21.9666 28.3182L21.1498 20.4609C21.147 20.4003 21.1568 20.3398 21.1787 20.2829C21.2006 20.226 21.2341 20.1738 21.2772 20.1293V20.1128ZM17.0829 22.4611L18.0794 20.2509C18.0925 20.2066 18.1173 20.1662 18.1514 20.1336C18.1855 20.101 18.2277 20.0772 18.2741 20.0645C18.3205 20.0517 18.3695 20.0505 18.4165 20.0609C18.4635 20.0713 18.507 20.0929 18.5428 20.1238L20.3387 21.577C20.4362 21.662 20.498 21.7779 20.5125 21.903L21.1614 27.1192C21.1799 27.2299 21.1574 27.3432 21.0976 27.4397L20.3793 28.5945C20.3619 28.628 20.3373 28.6575 20.3071 28.6813C20.2769 28.705 20.2418 28.7224 20.204 28.7323C20.1663 28.7422 20.1268 28.7444 20.0881 28.7388C20.0494 28.7331 20.0124 28.7197 19.9795 28.6995L18.8557 28.0309C18.7616 27.9712 18.6936 27.8809 18.6645 27.7768L17.0714 22.8037C17.0425 22.6962 17.0465 22.5831 17.0829 22.4777V22.4611ZM29.996 42.1212H17.9925C17.7267 42.1212 17.4718 42.0205 17.2838 41.8412C17.0959 41.6619 16.9903 41.4188 16.9903 41.1652C16.9903 40.9117 17.0959 40.6686 17.2838 40.4893C17.4718 40.31 17.7267 40.2093 17.9925 40.2093H29.996C30.2618 40.2093 30.5167 40.31 30.7047 40.4893C30.8926 40.6686 30.9982 40.9117 30.9982 41.1652C30.9982 41.4188 30.8926 41.6619 30.7047 41.8412C30.5167 42.0205 30.2618 42.1212 29.996 42.1212ZM31.1546 22.8369L29.5615 27.8099C29.5324 27.914 29.4644 28.0044 29.3703 28.0641L28.2464 28.7327C28.2135 28.7529 28.1766 28.7663 28.1379 28.7719C28.0992 28.7776 28.0597 28.7754 28.022 28.7654C27.9842 28.7555 27.9491 28.7382 27.9189 28.7144C27.8887 28.6907 27.8641 28.6611 27.8467 28.6277L27.1284 27.4729C27.0686 27.3764 27.0461 27.263 27.0646 27.1524L27.7135 21.9362C27.7281 21.811 27.7898 21.6952 27.8873 21.6102L29.6832 20.1569C29.719 20.1261 29.7624 20.1044 29.8095 20.094C29.8565 20.0837 29.9055 20.0849 29.9519 20.0976C29.9983 20.1103 30.0406 20.1341 30.0746 20.1668C30.1087 20.1994 30.1335 20.2398 30.1466 20.2841L31.143 22.4943C31.181 22.6116 31.179 22.7373 31.1373 22.8534L31.1546 22.8369Z" fill="currentColor" />
</svg>