<svg width="60" height="60" viewBox="0 0 60 60" fill="none" xmlns="http://www.w3.org/2000/svg">
<path d="M29.1584 6.36736C29.3239 6.16523 29.5627 6.0336 29.825 6V20.5878L19.7167 17.7143C19.7818 17.543 19.8746 17.3831 19.9917 17.2408L29.1584 6.36736Z" fill="currentColor"/>
<path d="M19.6334 18.049L29.825 20.9388V50.7918L22.5417 47.2163C22.537 47.1729 22.537 47.1292 22.5417 47.0857L19.6334 18.5143C19.6124 18.3599 19.6124 18.2034 19.6334 18.049Z" fill="currentColor"/>
<path d="M22.6834 47.6735L29.825 51.1755V54C29.614 53.9645 29.4175 53.8711 29.2584 53.7306L23.0417 48.1469C22.8926 48.0129 22.771 47.8522 22.6834 47.6735Z" fill="currentColor"/>
<path d="M30.175 51.1755L37.4083 47.4286C37.3289 47.7041 37.1732 47.9528 36.9584 48.147L30.7334 53.7306C30.5773 53.8708 30.3836 53.9643 30.175 54V51.1755Z" fill="currentColor"/>
<path d="M40.2667 17.7061L30.175 20.5878V6C30.4373 6.0336 30.6762 6.16523 30.8417 6.36736L40.0084 17.2408C40.1232 17.3789 40.2108 17.5367 40.2667 17.7061Z" fill="currentColor"/>
<path d="M40.3917 18.5143L37.4917 47.0122L30.175 50.7837V20.9388L40.3417 18.0326C40.3752 18.1911 40.392 18.3525 40.3917 18.5143Z" fill="currentColor"/>
<path d="M45.7 46.2612L43.6583 48.6286C43.4636 48.5304 43.3038 48.3767 43.2 48.1878L40.6417 43.9918C40.5468 43.841 40.4791 43.6754 40.4417 43.5021L45.7 46.2612Z" fill="currentColor"/>
<path d="M46.0583 46.3755L48.7584 46.0245L48.5917 46.1388L44.6083 48.5877C44.4361 48.694 44.2369 48.7506 44.0333 48.751L46.0583 46.3755Z" fill="currentColor"/>
<path d="M45.85 45.9592L40.3917 43.0857C40.3872 43.0014 40.3872 42.917 40.3917 42.8327L42.7 23.8612C42.7245 23.6793 42.7721 23.501 42.8417 23.3306L50.2167 28.0898L45.85 45.9592Z" fill="currentColor"/>
<path d="M50.2667 27.698L43.0167 23.0122C43.1014 22.8859 43.2054 22.773 43.325 22.6775L49.6833 17.3959C49.8691 17.2324 50.1087 17.1397 50.3583 17.1347L50.2667 27.698Z" fill="currentColor"/>
<path d="M50.575 28.1469L54.9833 26.7918C54.9664 26.9157 54.9413 27.0384 54.9083 27.1592L49.2667 45.2245C49.2253 45.3747 49.1606 45.5179 49.075 45.649L46.1833 46.0245L50.575 28.1469Z" fill="currentColor"/>
<path d="M55 26.4163L50.6083 27.7714L50.7083 17.1592C50.8504 17.2194 50.9789 17.3067 51.0862 17.416C51.1935 17.5253 51.2775 17.6545 51.3333 17.7959L54.85 25.7469C54.9478 25.9572 54.9989 26.1853 55 26.4163Z" fill="currentColor"/>
<path d="M14.3 46.2612L16.3334 48.6286C16.5281 48.5304 16.6879 48.3767 16.7917 48.1878L19.3584 43.9918C19.4506 43.8406 19.5155 43.6749 19.55 43.5021L14.3 46.2612Z" fill="currentColor"/>
<path d="M13.9334 46.3755L11.2417 46.0245C11.2925 46.0652 11.3453 46.1033 11.4 46.1388L15.3917 48.5877C15.5609 48.6937 15.7575 48.7504 15.9584 48.751L13.9334 46.3755Z" fill="currentColor"/>
<path d="M14.1417 45.9592L19.6 43.0857C19.6045 43.0014 19.6045 42.917 19.6 42.8327L17.2917 23.8612C17.2754 23.6778 17.2275 23.4984 17.15 23.3306L9.78337 28.0898L14.1417 45.9592Z" fill="currentColor"/>
<path d="M9.73337 27.698L16.975 23.0122C16.8928 22.884 16.7885 22.7708 16.6667 22.6775L10.3417 17.3959C10.1538 17.2306 9.91095 17.1377 9.65837 17.1347L9.73337 27.698Z" fill="currentColor"/>
<path d="M9.42504 28.1469L5.00837 26.7918C5.02416 26.9166 5.05206 27.0396 5.09171 27.1592L10.725 45.2245C10.7694 45.3751 10.8369 45.5182 10.925 45.649L13.8167 46.0245L9.42504 28.1469Z" fill="currentColor"/>
<path d="M5.00004 26.4163L9.3917 27.7714L9.28337 17.1592C8.99846 17.2838 8.77428 17.5122 8.65837 17.7959L5.14171 25.7469C5.04679 25.9578 4.99851 26.1859 5.00004 26.4163Z" fill="currentColor"/>
</svg>
