<svg width="48" height="48" viewBox="0 0 48 48" fill="none" xmlns="http://www.w3.org/2000/svg">
<path d="M23.1592 5.41561L16.0159 14.0754C15.7834 14.3662 15.6758 14.7374 15.7167 15.1075L18.0307 38.4181C18.0623 38.7485 18.2119 39.0564 18.4519 39.2854L23.2813 43.7069C23.4788 43.8951 23.7412 44 24.014 44C24.2867 44 24.5491 43.8951 24.7466 43.7069L29.5699 39.2854C29.8147 39.0598 29.9652 38.75 29.9912 38.4181L32.3112 15.1075C32.3306 14.9238 32.3137 14.7382 32.2613 14.5611C32.2089 14.384 32.1221 14.2189 32.0059 14.0754L24.8626 5.41561C24.7615 5.28616 24.6323 5.18145 24.4848 5.10944C24.3372 5.03742 24.1751 5 24.0109 5C23.8467 5 23.6847 5.03742 23.5371 5.10944C23.3895 5.18145 23.2603 5.28616 23.1592 5.41561Z" fill="currentColor"/>
<path d="M39.7353 14.1976L34.6556 18.5092C34.3814 18.7603 34.2097 19.104 34.1733 19.4741L32.3417 34.9432C32.2957 35.2723 32.3601 35.6074 32.5249 35.896L34.5702 39.322C34.6189 39.4207 34.6879 39.508 34.7727 39.5782C34.8575 39.6484 34.9561 39.6998 35.0622 39.7292C35.1682 39.7586 35.2793 39.7653 35.3881 39.7488C35.4969 39.7323 35.601 39.693 35.6936 39.6335L38.8806 37.6487C39.1428 37.4697 39.3331 37.2035 39.4179 36.8975L43.9236 22.1551C44.0385 21.7908 44.0234 21.398 43.8809 21.0436L41.0663 14.564C41.0287 14.4302 40.9573 14.3084 40.8588 14.2105C40.7603 14.1125 40.6382 14.0416 40.5043 14.0047C40.3704 13.9679 40.2292 13.9663 40.0945 14.0001C39.9597 14.0338 39.836 14.1019 39.7353 14.1976Z" fill="currentColor"/>
<path d="M8.26202 14.1976L13.3417 18.5092C13.6203 18.757 13.793 19.1025 13.824 19.4741L15.6556 34.9432C15.7034 35.2716 15.6412 35.6067 15.4786 35.896L13.4333 39.322C13.3839 39.4209 13.3143 39.5083 13.229 39.5785C13.1436 39.6487 13.0445 39.7002 12.938 39.7296C12.8314 39.7589 12.7199 39.7656 12.6107 39.749C12.5014 39.7325 12.3968 39.6931 12.3038 39.6335L9.12286 37.6487C8.85913 37.4712 8.66836 37.2045 8.58562 36.8975L4.07373 22.1551C3.96079 21.7901 3.97802 21.3972 4.12254 21.0436L6.93105 14.564C6.96861 14.4302 7.0401 14.3084 7.13857 14.2105C7.23705 14.1125 7.35915 14.0416 7.49307 14.0047C7.62699 13.9679 7.76814 13.9663 7.90286 14.0001C8.03759 14.0338 8.16132 14.1019 8.26202 14.1976Z" fill="currentColor"/>
</svg>
