<svg width="60" height="60" viewBox="0 0 60 60" fill="none" xmlns="http://www.w3.org/2000/svg">
<path d="M47.3413 19.8106L39.6848 49.1082L38.464 48.1034L43.5265 20.5774C43.5443 20.4679 43.5992 20.3674 43.6822 20.2923C43.7653 20.2171 43.8717 20.1716 43.9843 20.1631L47.3413 19.8106Z" fill="currentColor"/>
<path d="M51.6139 20.8065L43.6522 50.21L41.857 49.7517L40.0079 49.2757L47.7183 19.8017H47.7273L49.7199 20.3218L51.6139 20.8065Z" fill="currentColor"/>
<path d="M54.9799 23.53L45.6359 49.972L44.0202 50.2717L51.946 20.9828L54.8004 22.9924C54.8818 23.0539 54.9425 23.1382 54.9745 23.2341C55.0066 23.33 55.0084 23.4331 54.9799 23.53Z" fill="currentColor"/>
<path d="M25.9964 34.8296L22.1905 34.2655L20.2338 9.64802C20.2234 9.5364 20.2513 9.42458 20.3131 9.33035C20.3749 9.23612 20.4671 9.16492 20.5748 9.12802L25.8797 7.1537L25.9964 34.8296Z" fill="currentColor"/>
<path d="M25.9963 35.1822L26.0771 53.9736L23.9408 52.96C23.8577 52.9192 23.7868 52.8579 23.7349 52.7823C23.683 52.7066 23.6519 52.619 23.6446 52.5281L22.2174 34.6269L25.9963 35.1822Z" fill="currentColor"/>
<path d="M26.3554 34.7062L26.2387 7.08316H33.5901L33.6888 29.929L26.3554 34.7062Z" fill="currentColor"/>
<path d="M33.6888 30.3521L33.7875 54H26.4362L26.3554 35.1116L33.6888 30.3521Z" fill="currentColor"/>
<path d="M34.0478 30.3345L38.0601 31.2159L36.3636 52.581C36.3582 52.6724 36.3278 52.7607 36.2757 52.8367C36.2236 52.9127 36.1517 52.9735 36.0674 53.0128L34.1555 53.8414L34.0478 30.3345Z" fill="currentColor"/>
<path d="M39.7745 9.64802L38.087 30.8016L34.0478 29.9202L33.9491 7.00383C33.9788 6.99872 34.0092 6.99872 34.0388 7.00383L39.4245 9.01344C39.5564 9.05221 39.6674 9.14077 39.733 9.25972C39.7986 9.37867 39.8136 9.51829 39.7745 9.64802Z" fill="currentColor"/>
<path d="M7.97251 21.0269L15.9881 50.2452L14.3814 49.9456L5.02838 23.5036C4.99128 23.3989 4.99053 23.285 5.02625 23.1797C5.06197 23.0745 5.13215 22.9838 5.22585 22.9219L7.97251 21.0269Z" fill="currentColor"/>
<path d="M20.0004 49.2757L16.3561 50.2188L8.29565 20.8418L8.30463 20.833L10.2973 20.3218L12.0656 19.8634L20.0004 49.2757Z" fill="currentColor"/>
<path d="M21.5891 48.1034L20.3684 49.1082L12.4605 19.7929H12.5144L16.1048 20.1631C16.2164 20.1745 16.3212 20.221 16.4037 20.2956C16.4862 20.3703 16.5419 20.4691 16.5626 20.5774L21.5891 48.1034Z" fill="currentColor"/>
</svg>
