<svg width="48" height="48" viewBox="0 0 48 48" fill="none" xmlns="http://www.w3.org/2000/svg">
<path d="M42.3865 15.7772C42.3438 15.7462 42.2957 15.7233 42.2447 15.7096L38.8946 14.8358C38.8439 14.8236 38.791 14.8236 38.7403 14.8358L35.7542 15.1496C35.6593 15.1588 35.57 15.1986 35.4998 15.2631C35.4297 15.3275 35.3825 15.4129 35.3655 15.5065L31.1147 38.9978L32.2622 39.9576L35.6617 40.8436L37.1362 40.5729L44.9778 17.9984C45.0071 17.9081 45.0074 17.8109 44.9787 17.7205C44.9499 17.63 44.8935 17.5508 44.8174 17.4938L42.3865 15.7772Z" fill="currentColor"/>
<path d="M27.4006 4.00698C27.3475 3.99767 27.2932 3.99767 27.2402 4.00698H20.7744C20.7214 3.99767 20.6671 3.99767 20.614 4.00698L16.0793 5.69284C15.9903 5.72791 15.9148 5.79034 15.8638 5.8711C15.8128 5.95187 15.7889 6.04675 15.7956 6.14198L18.6644 42.7633C18.6696 42.8394 18.6953 42.9127 18.7387 42.9755C18.7821 43.0383 18.8417 43.0883 18.9112 43.1202L20.688 43.9631C20.7488 43.9878 20.8137 44.0003 20.8793 44H27.1353C27.2009 44.0003 27.2658 43.9878 27.3266 43.9631L29.1034 43.1202C29.1729 43.0883 29.2325 43.0383 29.2759 42.9755C29.3193 42.9127 29.345 42.8394 29.3502 42.7633L32.219 6.14198C32.2257 6.04675 32.2018 5.95187 32.1508 5.8711C32.0998 5.79034 32.0243 5.72791 31.9352 5.69284L27.4006 4.00698Z" fill="currentColor"/>
<path d="M5.62799 15.7772C5.66998 15.745 5.71836 15.7219 5.76991 15.7096L9.12001 14.8358C9.17068 14.8236 9.22357 14.8236 9.27425 14.8358L12.2603 15.1496C12.3552 15.1588 12.4445 15.1986 12.5147 15.2631C12.5848 15.3275 12.632 15.4129 12.649 15.5065L16.8999 38.9978L15.7462 39.9576L12.3529 40.8436L10.8783 40.5729L3.02443 17.9984C2.99316 17.9083 2.99188 17.8105 3.02078 17.7196C3.04968 17.6287 3.10722 17.5495 3.18484 17.4938L5.62799 15.7772Z" fill="currentColor"/>
</svg>
