<svg width="48" height="48" viewBox="0 0 48 48" fill="none" xmlns="http://www.w3.org/2000/svg">
  <path d="M39.7106 12.7454L31.1579 4.30517C30.9458 4.12131 30.6768 4.01374 30.3948 4H9.06579C8.78365 4.0017 8.51359 4.11308 8.31409 4.30996C8.11459 4.50684 8.00173 4.77335 8 5.05177V42.9482C8 43.2272 8.11229 43.4947 8.31216 43.6919C8.51204 43.8892 8.78312 44 9.06579 44H38.8619C39.1626 44 39.451 43.8826 39.6643 43.6734C39.8776 43.4641 39.9983 43.1801 40 42.8833V13.4725C39.9854 13.2057 39.8839 12.9506 39.7106 12.7454ZM31.3553 21.9452L21.9079 31.2683L17.4408 26.8534C17.3089 26.7351 17.2028 26.5915 17.1288 26.4315C17.0549 26.2715 17.0147 26.0983 17.0106 25.9224C17.0066 25.7466 17.0387 25.5717 17.1052 25.4085C17.1716 25.2453 17.2711 25.0972 17.3973 24.973C17.5236 24.8488 17.6741 24.7513 17.8397 24.6863C18.0053 24.6212 18.1825 24.5901 18.3607 24.5947C18.5389 24.5994 18.7143 24.6397 18.8762 24.7132C19.0381 24.7868 19.1832 24.892 19.3027 25.0226L21.9342 27.6196L29.5198 20.1338C29.7667 19.8901 30.1015 19.7532 30.4507 19.7532C30.7998 19.7532 31.1347 19.8901 31.3816 20.1338C31.6285 20.3774 31.7672 20.7079 31.7672 21.0524C31.7672 21.397 31.6285 21.7275 31.3816 21.9711L31.3553 21.9452ZM30.4211 13.505V6.12304L37.875 13.492L30.4211 13.505Z" fill="currentColor" />
</svg>