<svg width="48" height="48" viewBox="0 0 48 48" fill="none" xmlns="http://www.w3.org/2000/svg">
  <path d="M26.4669 24.5005C28.2523 25.9063 29.8846 27.312 30.4642 28.6778C30.7285 29.7947 30.8427 30.9419 30.804 32.089H32.6294C32.7513 32.089 32.8683 32.1374 32.9545 32.2236C33.0407 32.3098 33.0891 32.4268 33.0891 32.5487V33.8812C33.0891 33.9412 33.0772 34.0007 33.054 34.0561C33.0308 34.1115 32.9968 34.1617 32.9541 34.2039C32.9113 34.246 32.8606 34.2793 32.8048 34.3016C32.7491 34.324 32.6895 34.3351 32.6294 34.3342H18.3656C18.3056 34.3351 18.2459 34.324 18.1902 34.3016C18.1345 34.2793 18.0838 34.246 18.041 34.2039C17.9982 34.1617 17.9643 34.1115 17.9411 34.0561C17.9179 34.0007 17.906 33.9412 17.906 33.8812V32.5487C17.906 32.4268 17.9544 32.3098 18.0406 32.2236C18.1268 32.1374 18.2437 32.089 18.3656 32.089H20.1911C20.1491 30.9418 20.2634 29.7942 20.5308 28.6778C21.0971 27.3454 22.7294 25.9063 24.5282 24.5005C22.736 23.0947 21.1038 21.6956 20.5308 20.3298C20.2633 19.2112 20.149 18.0614 20.1911 16.912H18.3656C18.2449 16.912 18.129 16.8645 18.0429 16.7797C17.9569 16.6949 17.9077 16.5797 17.906 16.459V15.1265C17.906 15.0046 17.9544 14.8876 18.0406 14.8014C18.1268 14.7152 18.2437 14.6668 18.3656 14.6668H32.6294C32.7513 14.6668 32.8683 14.7152 32.9545 14.8014C33.0407 14.8876 33.0891 15.0046 33.0891 15.1265V16.459C33.0873 16.5797 33.0381 16.6949 32.9521 16.7797C32.8661 16.8645 32.7502 16.912 32.6294 16.912H30.804C30.8426 18.0613 30.7284 19.2106 30.4642 20.3298C29.8912 21.6623 28.259 23.0947 26.4669 24.5005Z" fill="currentColor" />
  <path d="M19.3983 7.31817L19.1984 6.55865C19.1197 6.1785 19.1896 5.78264 19.3936 5.45238C19.5977 5.12212 19.9204 4.88252 20.2955 4.78276C20.6707 4.683 21.0698 4.73068 21.4109 4.91598C21.752 5.10127 22.0092 5.41014 22.1298 5.77916L22.3363 6.53864C22.3875 6.73156 22.4002 6.93268 22.3736 7.13051C22.3471 7.32833 22.2819 7.51898 22.1816 7.69159C22.0814 7.8642 21.9481 8.01538 21.7895 8.1365C21.6308 8.25761 21.45 8.34629 21.257 8.39748C21.0641 8.44866 20.863 8.46135 20.6652 8.43481C20.4673 8.40827 20.2767 8.34301 20.1041 8.24279C19.9315 8.14257 19.7804 8.00932 19.6592 7.85067C19.5381 7.69202 19.4494 7.51109 19.3983 7.31817Z" fill="currentColor" />
  <path d="M15.1412 9.4901L14.7548 8.82386C14.6564 8.64887 14.5934 8.45621 14.5694 8.25688C14.5454 8.05755 14.561 7.85541 14.6151 7.66208C14.6692 7.46875 14.7609 7.28797 14.8849 7.13007C15.0088 6.97217 15.1628 6.84028 15.3378 6.74185C15.5127 6.64343 15.7053 6.5804 15.9047 6.55643C16.104 6.53245 16.3061 6.548 16.4994 6.60213C16.6927 6.65627 16.8735 6.74794 17.0314 6.87194C17.1893 6.99594 17.3213 7.14983 17.4197 7.32481L17.8061 7.99106C18.0048 8.34445 18.0551 8.76234 17.9458 9.15279C17.8365 9.54324 17.5765 9.87427 17.2231 10.0731C16.8697 10.2718 16.4518 10.3221 16.0614 10.2127C15.671 10.1034 15.34 9.84349 15.1412 9.4901Z" fill="currentColor" />
  <path d="M11.6235 12.7013L11.0972 12.175C10.8119 11.8897 10.6515 11.5026 10.6515 11.0991C10.6515 10.6955 10.8119 10.3085 11.0972 10.0231C11.3826 9.73772 11.7696 9.57741 12.1732 9.57741C12.5767 9.57741 12.9638 9.73772 13.2491 10.0231L13.7754 10.5494C14.0607 10.8348 14.221 11.2218 14.221 11.6254C14.221 12.0289 14.0607 12.416 13.7754 12.7013C13.49 12.9867 13.103 13.1471 12.6994 13.1471C12.2959 13.1471 11.9089 12.9867 11.6235 12.7013Z" fill="currentColor" />
  <path d="M9.07861 16.7188L8.41239 16.3457C8.059 16.1504 7.79765 15.8228 7.68582 15.4349C7.574 15.0469 7.62086 14.6304 7.81611 14.277C8.01135 13.9236 8.33901 13.6623 8.72695 13.5504C9.11489 13.4386 9.53132 13.4855 9.88471 13.6807L10.5509 14.0472C10.7259 14.1438 10.8801 14.2741 11.0048 14.4303C11.1295 14.5866 11.2221 14.7659 11.2775 14.958C11.3329 15.1501 11.3499 15.3512 11.3275 15.5499C11.3051 15.7486 11.2439 15.9408 11.1472 16.1158C11.0505 16.2908 10.9204 16.445 10.7641 16.5697C10.6078 16.6944 10.4284 16.787 10.2364 16.8424C10.0443 16.8978 9.84321 16.9148 9.64455 16.8924C9.4459 16.8701 9.25358 16.8088 9.07861 16.7121V16.7188Z" fill="currentColor" />
  <path d="M7.59295 21.2559L6.84678 21.056C6.45806 20.95 6.1273 20.6939 5.9274 20.344C5.72749 19.9942 5.67475 19.5793 5.78077 19.1906C5.88678 18.8018 6.14294 18.4711 6.49277 18.2712C6.84261 18.0713 7.25749 18.0185 7.64621 18.1245L8.38571 18.3244C8.76408 18.4386 9.08302 18.6958 9.27484 19.0414C9.46666 19.387 9.51628 19.7937 9.41309 20.1752C9.30991 20.5568 9.06208 20.883 8.72223 21.0848C8.38239 21.2866 7.9773 21.348 7.59295 21.2559Z" fill="currentColor" />
  <path d="M26.267 4.02694C30.0503 4.16733 33.7208 5.35302 36.8712 7.45252C40.0217 9.55202 42.529 12.4833 44.115 15.921C45.7011 19.3588 46.3038 23.1687 45.8564 26.9282C45.409 30.6877 43.929 34.2498 41.5805 37.2193C39.2319 40.1888 36.1067 42.4497 32.5515 43.7511C28.9963 45.0526 25.1501 45.3437 21.4395 44.5922C17.729 43.8408 14.299 42.0761 11.5303 39.4939C8.7616 36.9117 6.76233 33.613 5.75418 29.9637L2.25653 30.3568C2.21166 30.3627 2.16602 30.3552 2.12551 30.335C2.085 30.3148 2.05145 30.2829 2.02922 30.2435C2.00699 30.204 1.99706 30.1588 2.00076 30.1137C2.00446 30.0686 2.0216 30.0256 2.04996 29.9903L6.89338 23.8276C6.93223 23.7821 6.98708 23.7532 7.0466 23.747C7.10613 23.7408 7.16576 23.7577 7.21316 23.7943L13.4224 28.7045C13.4588 28.7319 13.486 28.7696 13.5007 28.8127C13.5153 28.8559 13.5167 28.9025 13.5044 28.9464C13.4922 28.9902 13.467 29.0294 13.4321 29.0588C13.3973 29.0882 13.3544 29.1063 13.3091 29.1109L9.59827 29.524C10.5241 32.4232 12.2266 35.0133 14.5208 37.0131C16.8151 39.0128 19.6133 40.3457 22.6117 40.8669C25.6102 41.3882 28.694 41.0779 31.5285 39.9698C34.363 38.8616 36.8397 36.998 38.6897 34.5813C40.5396 32.1646 41.692 29.2873 42.0217 26.2617C42.3515 23.2361 41.846 20.1781 40.5601 17.4196C39.2743 14.6611 37.2572 12.3077 34.728 10.6149C32.1987 8.92218 29.254 7.95479 26.2137 7.81785C26.0187 7.81268 25.8333 7.73197 25.6966 7.59277C25.5599 7.45358 25.4826 7.26676 25.4809 7.07166V4.76645C25.4809 4.66413 25.5013 4.56283 25.5411 4.46855C25.5808 4.37426 25.639 4.2889 25.7123 4.21749C25.7856 4.14607 25.8725 4.09007 25.9677 4.05276C26.063 4.01545 26.1647 3.99759 26.267 4.00026V4.02694Z" fill="currentColor" />
</svg>