<svg width="48" height="49" viewBox="0 0 48 49" fill="none" xmlns="http://www.w3.org/2000/svg">
  <path d="M43.2628 20.8948L40.1065 19.8427C39.9973 19.8118 39.8848 19.7938 39.7715 19.7891H39.1884C38.8345 18.54 38.3209 17.3418 37.6604 16.2242L38.076 15.8154C38.1562 15.7342 38.2239 15.6416 38.2771 15.5406L39.7715 12.5587C39.8674 12.3678 39.9034 12.1524 39.8747 11.9407C39.846 11.729 39.754 11.531 39.6106 11.3726L36.6085 8.3705C36.451 8.22548 36.2527 8.13231 36.0406 8.10355C35.8285 8.07479 35.6127 8.11183 35.4223 8.20968L32.4 9.6638C32.2976 9.71459 32.2046 9.78258 32.1252 9.86483L31.7165 10.2736C30.6059 9.63901 29.4222 9.14171 28.1916 8.79267V8.20968C28.205 8.0984 28.205 7.98591 28.1916 7.87463L27.1395 4.71842C27.0665 4.50036 26.9242 4.3122 26.7342 4.18271C26.5442 4.05322 26.3169 3.98953 26.0873 4.0014H21.8724C21.652 4.00216 21.4373 4.07165 21.2583 4.20018C21.0794 4.3287 20.945 4.50987 20.8739 4.71842L19.8217 7.87463C19.7871 7.98299 19.769 8.09594 19.7681 8.20968V8.79267C18.521 9.15239 17.3235 9.66558 16.203 10.3205L15.7875 9.90503C15.709 9.82183 15.6158 9.7537 15.5128 9.70401L12.5374 8.20968C12.3458 8.11222 12.129 8.07539 11.9159 8.10412C11.7028 8.13285 11.5036 8.22576 11.3446 8.3705L8.34913 11.3726C8.2041 11.53 8.11088 11.7282 8.08212 11.9403C8.05336 12.1525 8.09044 12.3683 8.1883 12.5587L9.64243 15.5808C9.69076 15.6814 9.75404 15.774 9.83008 15.8556L10.2523 16.2644C9.61366 17.373 9.11617 18.557 8.77131 19.7891H8.1883C8.07485 19.7933 7.96234 19.8113 7.85324 19.8427L4.717 20.8948C4.50844 20.9659 4.32731 21.1003 4.19878 21.2793C4.07025 21.4583 4.00076 21.6729 4 21.8932V26.1082C4.00076 26.3286 4.07025 26.5431 4.19878 26.7221C4.32731 26.9011 4.50844 27.0355 4.717 27.1067L7.87328 28.1587C7.98164 28.1933 8.0946 28.2114 8.20834 28.2123H8.79135C9.14583 29.4601 9.65698 30.658 10.3126 31.7773L9.89708 32.1927C9.81544 32.2712 9.74946 32.3644 9.70272 32.4675L8.20834 35.4428C8.11087 35.6344 8.07409 35.8511 8.10282 36.0642C8.13155 36.2773 8.22442 36.4766 8.36917 36.6355L11.3647 39.6309C11.5203 39.7874 11.721 39.891 11.9387 39.9271C12.1564 39.9631 12.3799 39.9299 12.5776 39.832L15.5798 38.3376C15.6836 38.2892 15.7769 38.2209 15.8545 38.1366L16.2633 37.7278C17.3714 38.3675 18.5557 38.8651 19.7882 39.2088V39.7918C19.7891 39.9055 19.8072 40.0185 19.8418 40.1268L20.8938 43.283C20.965 43.4915 21.0995 43.6727 21.2785 43.8012C21.4574 43.9298 21.672 43.9992 21.8923 44H26.1074C26.3278 43.9992 26.5425 43.9298 26.7215 43.8012C26.9004 43.6727 27.0348 43.4915 27.1059 43.283L28.1581 40.1268C28.1895 40.0177 28.2075 39.9052 28.2117 39.7918V39.2088C29.4596 38.8543 30.6573 38.3432 31.7767 37.6876L32.1856 38.0964C32.265 38.1786 32.3578 38.2466 32.4602 38.2974L35.4424 39.7918C35.6328 39.8896 35.8486 39.9267 36.0607 39.8979C36.2728 39.8691 36.4711 39.776 36.6286 39.6309L39.6307 36.6355C39.7755 36.4766 39.8684 36.2773 39.8971 36.0642C39.9258 35.8511 39.889 35.6344 39.7916 35.4428L38.3373 32.4206C38.2865 32.3182 38.2186 32.2252 38.1364 32.1458L37.6806 31.7773C38.341 30.6596 38.8546 29.4614 39.2085 28.2123H39.7916C39.9053 28.2114 40.0183 28.1933 40.1266 28.1587L43.2829 27.1067C43.4915 27.0355 43.6727 26.9011 43.8012 26.7221C43.9298 26.5431 43.9992 26.3286 44 26.1082V21.8932C43.9978 21.6704 43.9254 21.454 43.793 21.2747C43.6607 21.0954 43.4751 20.9625 43.2628 20.8948ZM32.1923 32.186C30.2987 34.079 27.8073 35.2569 25.1427 35.5189C22.478 35.7809 19.8048 35.111 17.5788 33.6231C15.3527 32.1352 13.7115 29.9216 12.9347 27.3593C12.1578 24.797 12.2935 22.0447 13.3186 19.5712C14.3436 17.0978 16.1947 15.0563 18.5563 13.7945C20.9179 12.5328 23.6439 12.129 26.2699 12.6518C28.8959 13.1746 31.2594 14.5918 32.9576 16.6618C34.6558 18.7318 35.5837 21.3266 35.5831 24.0041C35.5825 27.0731 34.3628 30.0162 32.1923 32.186Z" fill="currentColor" />
  <path d="M30.6777 17.303C29.1278 15.7527 27.0883 14.7877 24.9067 14.5725C22.7251 14.3573 20.5364 14.9051 18.7134 16.1227C16.8905 17.3403 15.5461 19.1523 14.9093 21.2499C14.2726 23.3475 14.383 25.601 15.2215 27.6264C16.0601 29.6519 17.5749 31.3239 19.5081 32.3576C21.4412 33.3914 23.6731 33.7229 25.8232 33.2956C27.9734 32.8684 29.9088 31.7088 31.2999 30.0146C32.691 28.3203 33.4515 26.1962 33.452 24.004C33.4518 21.491 32.454 19.0808 30.6777 17.303ZM21.1016 27.8639L20.4314 29.0231C20.4147 29.0565 20.3912 29.0861 20.3624 29.1098C20.3336 29.1336 20.3002 29.1512 20.2642 29.1612C20.2283 29.1713 20.1906 29.1738 20.1536 29.1685C20.1167 29.1632 20.0811 29.1502 20.0494 29.1303L18.9706 28.4602C18.8809 28.4006 18.8164 28.3099 18.7897 28.2056L17.2617 23.2133C17.2183 23.092 17.2183 22.9594 17.2617 22.8381L18.2201 20.6401C18.2327 20.5958 18.2566 20.5555 18.2894 20.5231C18.3222 20.4907 18.3628 20.4674 18.4072 20.4553C18.4517 20.4432 18.4985 20.4427 18.5432 20.4539C18.5879 20.4652 18.629 20.4878 18.6624 20.5195L20.3845 21.9803C20.476 22.0648 20.5352 22.1785 20.552 22.302L21.1754 27.5489C21.1852 27.6591 21.1593 27.7695 21.1016 27.8639ZM26.007 28.7149C25.9969 28.8268 25.947 28.9315 25.8663 29.0097L24.2312 30.5107C24.1637 30.5758 24.0736 30.6123 23.9799 30.6123C23.8861 30.6123 23.796 30.5758 23.7286 30.5107L22.0933 29.0097C22.0126 28.9315 21.9627 28.8268 21.9526 28.7149L21.1686 20.821C21.1572 20.6943 21.1929 20.5678 21.2691 20.4659L23.6883 17.5375C23.7229 17.4942 23.7667 17.4593 23.8166 17.4353C23.8665 17.4112 23.9211 17.3988 23.9764 17.3988C24.0318 17.3988 24.0864 17.4112 24.1363 17.4353C24.1862 17.4593 24.23 17.4942 24.2646 17.5375L26.6905 20.4659C26.7667 20.5678 26.8024 20.6943 26.791 20.821L26.007 28.7149ZM29.1968 28.1989C29.17 28.3032 29.1055 28.394 29.0158 28.4536L27.9368 29.1237C27.9052 29.1435 27.8698 29.1565 27.8328 29.1618C27.7958 29.1671 27.7582 29.1646 27.7222 29.1545C27.6862 29.1444 27.6528 29.127 27.624 29.1032C27.5952 29.0794 27.5717 29.0498 27.555 29.0164L26.8849 27.8572C26.8304 27.7593 26.8092 27.6464 26.8245 27.5355L27.4477 22.2886C27.4644 22.1652 27.5237 22.0514 27.6152 21.9669L29.3375 20.5061C29.3709 20.4743 29.4119 20.4518 29.4566 20.4405C29.5013 20.4293 29.5481 20.4297 29.5925 20.4419C29.637 20.454 29.6777 20.4774 29.7105 20.5098C29.7433 20.5421 29.767 20.5824 29.7797 20.6267L30.7381 22.8247C30.7816 22.946 30.7816 23.0786 30.7381 23.1999L29.1968 28.1989Z" fill="currentColor" />
</svg>